<?xml version="1.0" standalone="no"?>
  <!DOCTYPE svg PUBLIC "-//W3C//DTD SVG 1.1//EN" "http://www.w3.org/Graphics/SVG/1.1/DTD/svg11.dtd" >
  <svg>
  <metadata>
  Created by font-carrier
  </metadata>
  <defs>
  <font id="GetSchwifty-Regular" horiz-adv-x="833" vert-adv-y="833" >
    <font-face
      
      font-family="Get Schwifty"
      
      font-weight="400"
      
      font-stretch="normal"
      
      units-per-em="1000"
      
      ascent="750"
      
      descent="-250"
      
    />
      <missing-glyph />

      

      
      <glyph glyph-name="uni64" unicode="&#x64;" d="M236 935Q246 935 246 930L261 800L241 665Q265 650 269 626Q273 602 268 575Q263 548 254.50 520Q246 492 246 470Q269 444 273 401Q277 358 266 305Q257 252 254.50 195Q252 138 251 90Q250 42 247.50 11Q245-20 236-20Q234-20 233-19Q231-17 231-15Q227 11 223 30Q219 49 214 64Q209 79 202 92Q195 105 186 120Q182 95 179 80.50Q176 66 170.50 59Q165 52 156.50 50Q148 48 133 47.50Q118 47 95.50 46Q73 45 41 40Q33 41 25 45Q18 48 11.50 52.50Q5 57 1 65Q-7 74-7 87.50Q-7 101-4 114Q0 129 6 145Q-9 177-28 209.50Q-47 242-54.50 275Q-62 308-50.50 340.50Q-39 373 6 405Q19 420 24.50 441.50Q30 463 39 481Q48 499 65.50 507.50Q83 516 121 505L176 515L201 755Q203 785 205 817Q207 849 211 875Q215 901 221 918Q227 935 236 935M121 410Q117 410 111 398.50Q105 387 99 372Q93 357 88 342Q83 327 81 320Q81 312 76 308Q71 304 65 300Q59 296 53.50 291.50Q48 287 46 280Q42 257 51 237.50Q60 218 71 195Q79 187 83 186Q87 185 91 185Q102 185 111 192Q120 199 131 210Q138 217 144 219.50Q150 222 155.50 222.50Q161 223 165.50 225Q170 227 176 235Q178 241 180.50 251Q183 261 185 272.50Q187 284 187.50 294Q188 304 186 310Q180 316 171 325.50Q162 335 152.50 348Q143 361 135.50 375.50Q128 390 126 405L121 410Z"  horiz-adv-x="433" vert-adv-y="1000"  />

      
      <glyph glyph-name="uni65" unicode="&#x65;" d="M336 535Q366 541 379.50 525Q393 509 398 483.50Q403 458 404 429.50Q405 401 411 380Q406 372 406.50 363.50Q407 355 407.50 346.50Q408 338 405.50 330.50Q403 323 391 319Q379 315 355.50 315.50Q332 316 291 322Q283 311 274.50 299Q266 287 254 279.50Q242 272 227 272Q212 272 191 285L136 240L171 45L266 35L346 40L371 150L401 135L431 185L406 20Q378 1 358-10Q338-21 323-25.50Q308-30 296-27Q284-24 271-15Q224-34 197-42.50Q170-51 156-52.50Q142-54 137.50-51.50Q133-49 131-45Q129-2 118.50 38.50Q108 79 93 112.50Q78 146 60.50 171.50Q43 197 26 210Q20 214 20.50 222Q21 230 24.50 239.50Q28 249 34 260Q40 271 46 280Q44 310 35.50 342Q27 374 26.50 404.50Q26 435 41 462Q56 489 101 510Q88 532 95 543.50Q102 555 121.50 560.50Q141 566 168 567Q195 568 221 570L336 535M246 490Q223 490 209 485.50Q195 481 191 470L156 435L106 400L121 345Q149 341 178.50 336.50Q208 332 235 333.50Q262 335 285.50 346Q309 357 326 385Q309 392 302.50 404Q296 416 295.50 429.50Q295 443 298.50 457.50Q302 472 306 485Q287 485 272 487.50Q257 490 246 490Z"  horiz-adv-x="530" vert-adv-y="1000"  />

      
      <glyph glyph-name="uni67" unicode="&#x67;" d="M126 565Q135 563 139 546Q143 529 149.50 509.50Q156 490 169.50 475.50Q183 461 211 465Q224 465 238.50 448Q253 431 262.50 409Q272 387 273 365.50Q274 344 261 335Q250 327 254 320.50Q258 314 269 306Q280 298 292.50 288Q305 278 311 265Q317 248 316 228Q315 208 311 188.50Q307 169 302.50 151Q298 133 296 120Q315 105 319.50 77.50Q324 50 329 13.50Q334-23 347-67Q360-111 396-160Q409-177 400.50-196Q392-215 373-232.50Q354-250 329.50-265.50Q305-281 286-290Q258-305 225-315Q192-325 158.50-327Q125-329 92-323Q59-317 31-300Q5-285-8.50-255.50Q-22-226-29-200Q-31-181-33-157Q-35-133-33-111.50Q-31-90-23.50-75Q-16-60 1-60Q29-60 40.50-71.50Q52-83 51.50-99Q51-115 41-132Q31-149 16-160Q-2-172 1.50-185.50Q5-199 20-209.50Q35-220 57-226Q79-232 99-230Q119-228 133-216.50Q147-205 146-180Q145-170 153.50-169.50Q162-169 176.50-173Q191-177 209-183.50Q227-190 243.50-194.50Q260-199 273-199Q286-199 291-190Q306-169 304-143Q302-117 292.50-88.50Q283-60 271.50-30.50Q260-1 256 25Q228 10 211.50 10Q195 10 183 18.50Q171 27 161 40.50Q151 54 136 65Q123 72 105 74.50Q87 77 68.50 81.50Q50 86 32 97.50Q14 109 1 135Q-1 154 8 176.50Q17 199 29 219Q43 242 61 265Q65 302 61 329Q57 356 51.50 378.50Q46 401 43 422.50Q40 444 46 470Q61 523 84 544Q107 565 126 565M161 425Q140 423 134.50 407Q129 391 129.50 369Q130 347 132.50 323Q135 299 131 280Q129 261 120 239Q111 217 104.50 196Q98 175 98.50 157Q99 139 116 130Q127 122 139.50 125Q152 128 164 136.50Q176 145 185.50 157Q195 169 201 180Q208 195 209 211Q210 227 207 242.50Q204 258 199.50 274Q195 290 191 305Q189 320 190 340.50Q191 361 189.50 380Q188 399 182 412Q176 425 161 425Z"  horiz-adv-x="525" vert-adv-y="1000"  />

      
      <glyph glyph-name="uni68" unicode="&#x68;" d="M86 975Q99 975 99.50 966.50Q100 958 96 946Q92 934 88.50 920Q85 906 91 895L96 895Q115 895 119.50 869Q124 843 122 805Q120 767 115.50 722Q111 677 111 640L131 535Q140 533 149.50 529Q159 525 169 522Q179 519 189.50 517.50Q200 516 211 520Q233 557 246 571.50Q259 586 265 586.50Q271 587 273 576.50Q275 566 276 551.50Q277 537 279 522Q281 507 287 499Q293 491 305.50 493Q318 495 341 515Q371 486 385 469Q399 452 404 442.50Q409 433 409 427.50Q409 422 411.50 417.50Q414 413 422 406Q430 399 451 385Q462 372 456 358.50Q450 345 438 328.50Q426 312 415 291.50Q404 271 406 245Q393 260 390 262Q387 264 389 260Q391 256 396.50 250.50Q402 245 406 245Q414 237 425 223Q436 209 451 190Q475 160 484 123.50Q493 87 491.50 55Q490 23 481 1.50Q472-20 461-20Q459-24 449-25Q439-26 428-24.50Q417-23 409.50-19.50Q402-16 406-10Q408 7 414 26Q420 45 423 63Q426 81 423.50 97.50Q421 114 406 125Q391 129 378.50 140Q366 151 366 170Q358 208 349 245Q340 282 351 320Q343 348 327.50 373Q312 398 292.50 413.50Q273 429 251.50 432Q230 435 211 420Q187 418 171.50 393Q156 368 149.50 329Q143 290 145 242Q147 194 156 145Q160 121 167 97.50Q174 74 180.50 53Q187 32 191.50 15.50Q196-1 195-11.50Q194-22 185-25Q176-28 156-20Q147-14 136.50-4.50Q126 5 115.50 7.50Q105 10 93.50 1Q82-8 71-40L66 80L81 220L71 230Q56 252 56 280Q45 295 37.50 309.50Q30 324 26 335Q20 359 23.50 393Q27 427 33 459Q40 496 51 535Q53 567 49 606.50Q45 646 39.50 686.50Q34 727 28.50 764.50Q23 802 21 830Q17 873 14.50 897.50Q12 922 13.50 935Q15 948 23.50 953.50Q32 959 51 965Q62 969 72 972Q82 975 86 975Z"  horiz-adv-x="587" vert-adv-y="1000"  />

      
      <glyph glyph-name="uni69" unicode="&#x69;" d="M86 920L136 900Q151 889 160.50 874Q170 859 167 835Q164 811 145.50 773.50Q127 736 86 680Q66 694 50 709Q36 722 24.50 736.50Q13 751 11 765Q7 780 10.50 799Q14 818 20 835Q26 854 36 875Q30 890 22 905Q14 920 12.50 935Q11 950 21 965Q31 980 61 995L86 920M136 535L116 375Q130 358 142 341Q153 327 162.50 310Q172 293 176 280Q181 255 178 221.50Q175 188 169 156Q162 119 151 80Q144 39 145 7Q146-25 150.50-49Q155-73 159-89Q163-105 161.50-115Q160-125 149.50-128.50Q139-132 114-131Q93-131 86.50-128.50Q80-126 80-115.50Q80-105 84.50-84Q89-63 91-25L66 95Q58 97 51 99.50Q44 102 42 113.50Q40 125 46 148.50Q52 172 71 215L66 468Q61 453 55 443Q50 435 42.50 429.50Q35 424 26 430Q15 436 9.50 448.50Q4 461 3.50 476.50Q3 492 5.50 510Q8 528 13 546Q24 587 46 635Q55 629 65.50 619.50Q76 610 86.50 607.50Q97 605 108.50 614Q120 623 131 655L136 535Z"  horiz-adv-x="297" vert-adv-y="1000"  />

      
      <glyph glyph-name="uni6a" unicode="&#x6a;" d="M104 854Q123 854 139 841Q155 828 159 794L204 779Q221 740 218.50 722Q216 704 204 695Q192 686 174.50 680Q157 674 144 659Q127 647 114 641Q103 636 92 635.50Q81 635 79 649Q76 663 71 682.50Q66 702 61 722Q55 744 49 769Q32 778 32 792Q32 806 42.50 819Q53 832 70 842Q87 852 104 854M143 582Q158 569 167.50 560Q177 551 184 534.50Q191 518 198 488Q205 458 214 404Q228 388 240 372Q251 358 260.50 342.50Q270 327 274 314Q279 289 278.50 250Q278 211 275 173Q271 129 264 80Q268 41 272.50 7Q277-27 280-59.50Q283-92 284-125Q285-158 281-195Q273-246 254.50-283.50Q236-321 213-343.50Q190-366 166.50-372Q143-378 126-365Q113-356 99-332Q85-308 70.50-266.50Q56-225 41-165.50Q26-106 11-25Q18-4 32.50-11.50Q47-19 62.50-47Q78-75 91.50-119Q105-163 111-215Q113-232 121.50-241Q130-250 143-254Q156-258 171-257.50Q186-257 201-255Q202-190 199-130Q198-105 196-78.50Q194-52 190.50-27.50Q187-3 182 18.50Q177 40 171 55L146 175Q138 179 131 182.50Q124 186 122 197.50Q120 209 126 231.50Q132 254 151 295Q154 333 148.50 350Q143 367 135 374Q127 381 118.50 383Q110 385 106.50 391.50Q103 398 106 413.50Q109 429 124 464Q113 470 107.50 478Q102 486 101.50 495Q101 504 103.50 514Q106 524 111 534Q122 557 143 582Z"  horiz-adv-x="447" vert-adv-y="1000"  />

      
      <glyph glyph-name="uni6c" unicode="&#x6c;" d="M171 920Q188 903 185.50 889.50Q183 876 174 861.50Q165 847 156 829Q147 811 151 785Q155 766 168.50 744.50Q182 723 186 700Q188 689 180.50 681.50Q173 674 164.50 667Q156 660 150.50 651Q145 642 151 627Q153 618 146 596Q139 574 134.50 542.50Q130 511 132.50 472Q135 433 156 390Q158 386 160.50 393.50Q163 401 166 410Q169 419 171.50 426.50Q174 434 176 430Q189 413 189.50 394.50Q190 376 183.50 357Q177 338 166 318.50Q155 299 146 280Q127 234 121 202Q115 170 116 148Q117 126 123 110.50Q129 95 134.50 81.50Q140 68 143 54Q146 40 141 20Q139 9 149 10.50Q159 12 172.50 18Q186 24 199 30.50Q212 37 216 35Q227 24 228 13.50Q229 3 234-5Q239-13 256-19.50Q273-26 316-30Q335-49 351-57.50Q367-66 374-72.50Q381-79 375.50-87.50Q370-96 346-115Q350-147 342-157.50Q334-168 319.50-164Q305-160 286.50-146Q268-132 251-115Q237-138 219.50-135Q202-132 185-120Q166-106 146-80Q107-95 74-103Q41-111 24-105.50Q7-100 9-79Q11-58 41-15Q41 2 43 20.50Q45 39 46.50 57Q48 75 47.50 92.50Q47 110 41 125Q35 140 29.50 153.50Q24 167 23.50 181Q23 195 28.50 210.50Q34 226 51 245Q62 256 66 254Q70 252 69.50 249.50Q69 247 66 251.50Q63 256 61 280Q65 305 59 317Q53 329 44 335Q35 341 26.50 344.50Q18 348 16 355Q14 362 22.50 376.50Q31 391 56 420Q63 429 60 443Q57 457 52.50 473.50Q48 490 46.50 508Q45 526 56 545Q60 562 62.50 583.50Q65 605 68.50 629.50Q72 654 78.50 682Q85 710 96 740Q96 793 107.50 827Q119 861 133 882Q150 906 171 920Z"  horiz-adv-x="462" vert-adv-y="1000"  />

      
      <glyph glyph-name="uni6b" unicode="&#x6b;" d="M126 945Q147 932 151.50 908.50Q156 885 151.50 856.50Q147 828 137.50 796.50Q128 765 121 735Q136 724 144.50 708.50Q153 693 155 676Q157 659 152 642Q147 625 136 610Q127 599 122.50 580.50Q118 562 118.50 545Q119 528 126 517Q133 506 146 510Q168 516 182.50 533Q197 550 208 568Q219 586 228.50 600.50Q238 615 251 615L266 595Q297 649 319.50 682Q342 715 358 734Q374 753 385.50 761Q397 769 406 772.50Q415 776 423 777.50Q431 779 441 785L381 685Q364 664 345 645.50Q326 627 309.50 606.50Q293 586 282 561.50Q271 537 271 505Q269 490 254 479.50Q239 469 221 457Q203 445 188 429.50Q173 414 171 390Q171 361 184 343.50Q197 326 214.50 313Q232 300 250.50 288.50Q269 277 281 260L321 135Q335 148 342 133Q349 118 352.50 86Q356 54 356 10Q356-34 356-81Q356-128 356.50-173Q357-218 361-250Q363-265 359.50-274.50Q356-284 350-285.50Q344-287 336-279Q328-271 321-250L291-145Q283-119 273.50-83.50Q264-48 256-16Q246 21 236 60Q228 94 220.50 127Q213 160 202.50 190Q192 220 178.50 245.50Q165 271 146 290L131 260L121 275Q117 196 99 131.50Q81 67 66 25Q64 2 60-16Q56-31 49-42.50Q42-54 31-50Q37-18 40.50 17.50Q44 53 48 92.50Q52 132 58.50 175Q65 218 76 265L56 305L76 445Q77 454 74 448.50Q71 443 65 430.50Q59 418 51.50 401.50Q44 385 37 371.50Q30 358 24 351Q18 344 16 350Q5 378 4.50 406Q4 434 9 461Q14 488 22 514.50Q30 541 36 565Q39 575 42 600Q45 625 49 657.50Q53 690 57 727Q61 764 66 799Q71 834 76 863.50Q81 893 86.50 910Q92 927 98 929Q104 931 111 910L126 945L126 945Z"  horiz-adv-x="542" vert-adv-y="1000"  />

      
      <glyph glyph-name="uni6d" unicode="&#x6d;" d="M482 930Q486 906 479 866.50Q472 827 465 786.50Q458 746 457 711Q456 676 471 661Q477 626 478 592Q479 558 478 523Q477 488 475.50 453Q474 418 476 382Q476 386 484 385.50Q492 385 492 378Q494 355 493 323Q492 291 491 256.50Q490 222 490.50 190Q491 158 497 136Q497 125 500 128.50Q503 132 507 136Q519 143 528 135.50Q537 128 533 117Q531 88 526 70Q521 52 514.50 35.50Q508 19 502 0.50Q496-18 492-47Q496-40 507.50-38Q519-36 523-47Q529-61 530.50-76Q532-91 532-107Q532-123 531.50-139Q531-155 533-170Q537-205 537.50-243.50Q538-282 554-317Q558-334 557.50-353.50Q557-373 538-380Q530-382 526-379Q522-376 520.50-371Q519-366 518.50-359.50Q518-353 518-348Q516-352 514.50-357.50Q513-363 510.50-367.50Q508-372 503.50-375Q499-378 492-376Q488-369 487.50-361.50Q487-354 487.50-346Q488-338 488.50-329.50Q489-321 487-312Q483-270 471.50-229.50Q460-189 456-148Q450-110 440-72.50Q430-35 420 3Q410 41 401.50 78.50Q393 116 389 154Q391 159 390.50 165.50Q390 172 390 178Q390 184 391.50 190Q393 196 399 199Q405 199 410 195Q415 191 418.50 187.50Q422 184 425 183.50Q428 183 430 190Q430 249 421 304.50Q412 360 404 419Q396 367 387.50 316Q379 265 363 213Q347 165 339 117Q331 69 327 21Q323-3 325.50-24.50Q328-46 332-70Q334-75 332-82Q330-89 325.50-94.50Q321-100 313.50-102.50Q306-105 296-102Q286-95 281.50-86Q277-77 275-66.50Q273-56 272.50-45.50Q272-35 270-24Q270-14 264.50-17.50Q259-21 255-24Q239-35 223-24.50Q207-14 203 3Q195 27 196 51Q197 75 201.50 99Q206 123 211.50 147Q217 171 219 195Q199 230 186 269Q173 308 157 346Q147 363 143 380.50Q139 398 136.50 416Q134 434 131 452Q128 470 121 487L121 300Q125 224 123 144.50Q121 65 105-11Q105-18 103-25.50Q101-33 96.50-39Q92-45 85.50-47.50Q79-50 69-47Q67-64 68.50-80.50Q70-97 71.50-113.50Q73-130 73-146.50Q73-163 69-180Q65-190 54-186Q43-182 38-175Q27-213 25.50-249.50Q24-286 13-321Q11-326 9.50-332.50Q8-339 6-344Q4-349-0.50-352Q-5-355-13-353Q-25-342-21.50-329.50Q-18-317-18-303Q-14-272-12.50-239Q-11-206-3-175Q1-155 10.50-136.50Q20-118 13-97Q-3-94-13-84.50Q-23-75-23-61Q-25-39-28.50-12.50Q-32 14-33.50 41Q-35 68-33 93.50Q-31 119-23 140Q-21 152-7.50 147Q6 142 20.50 134.50Q35 127 45 123.50Q55 120 49 136Q64 286 49 437Q41 440 34.50 447Q28 454 28 464Q20 502 24.50 541Q29 580 49 615Q51 622 56.50 628Q62 634 69 638Q76 642 84 642.50Q92 643 100 638Q102 636 103 631.50Q104 627 105 624Q106 621 107.50 621.50Q109 622 111 629Q122 636 131.50 626Q141 616 141 606Q149 620 155.50 631Q162 642 162 656Q158 667 156 677.50Q154 688 162 702Q174 722 190 746Q206 770 229 784Q235 787 238 785Q241 783 242 778.50Q243 774 242 767.50Q241 761 239 756Q235 739 227 722Q219 705 210.50 687.50Q202 670 196.50 652Q191 634 193 615Q197 594 204 574.50Q211 555 219 535Q227 515 235.50 495.50Q244 476 250 455Q262 419 262.50 382.50Q263 346 260 309Q257 272 254 235.50Q251 199 255 163Q260 181 269 194.50Q278 208 286 227.50Q294 247 300.50 277Q307 307 308 359Q316 398 326 441Q336 484 348.50 527.50Q361 571 375 613Q389 655 404 693Q414 713 418.50 734.50Q423 756 425 777.50Q427 799 427.50 821.50Q428 844 430 866Q432 876 435 887.50Q438 899 444 908.50Q450 918 459 924Q468 930 482 930Z"  horiz-adv-x="667" vert-adv-y="1000"  />

      
      <glyph glyph-name="uni6f" unicode="&#x6f;" d="M204 463Q216 463 223.50 454Q231 445 228 421Q228 401 244.50 385.50Q261 370 281 355.50Q301 341 319.50 325.50Q338 310 341 291Q343 275 337.50 250.50Q332 226 326 203Q318 176 309 146Q321 134 323 116.50Q325 99 320.50 77Q316 55 308 31Q300 7 292-18Q281-63 259.50-83Q238-103 220-103Q209-103 204-88Q199-73 192-55Q185-37 171.50-23Q158-9 131-12Q99-13 85 0Q71 13 64 38Q57 63 53 97.50Q49 132 39 174Q34 199 20.50 226Q7 253 1.50 279Q-4 305 6 330.50Q16 356 58 378Q86 395 112 407Q138 419 159 438Q183 463 204 463M220 302Q214 302 208.50 293.50Q203 285 197.50 273.50Q192 262 186.50 250.50Q181 239 174.50 233.50Q168 228 160.50 231Q153 234 144 252Q136 265 135 254Q134 243 137 221.50Q140 200 144 175Q148 150 151 136Q154 122 153.50 102.50Q153 83 154 65.50Q155 48 161 36.50Q167 25 184 27Q223 27 234 61.50Q245 96 212 157Q206 168 208 181.50Q210 195 215.50 209Q221 223 227.50 236.50Q234 250 237.50 262Q241 274 238.50 283Q236 292 224 297Q224 302 220 302Z"  horiz-adv-x="392" vert-adv-y="1000"  />

      
      <glyph glyph-name="uni6e" unicode="&#x6e;" d="M461 795Q484 776 497 751Q510 726 521 700Q529 689 527 677.50Q525 666 521 655Q528 621 534.50 586Q541 551 542 521.50Q543 492 536.50 471.50Q530 451 511 445Q496 441 496.50 426Q497 411 503.50 391.50Q510 372 518 351Q526 330 526 315Q528 292 519.50 271.50Q511 251 500.50 230Q490 209 480.50 188Q471 167 471 145Q471 119 476 87Q481 55 486.50 22.50Q492-10 494.50-42Q497-74 491-100Q487-115 471-125.50Q455-136 436-125Q425-119 422.50-134.50Q420-150 420.50-172.50Q421-195 421.50-218Q422-241 416-250Q397-254 387-239.50Q377-225 381-210Q384-181 373-154.50Q362-128 345.50-104Q329-80 311-59Q293-38 279.50-20.50Q266-3 262 11Q258 25 271 35Q288 48 283.50 67.50Q279 87 265.50 108.50Q252 130 235 151.50Q218 173 211 190Q192 201 174.50 216.50Q157 232 144 254.50Q131 277 125.50 308Q120 339 126 380Q118 320 110 257.50Q102 195 106 135Q106 126 108.50 125.50Q111 125 114.50 128Q118 131 122.50 135.50Q127 140 131 140Q138 136 140.50 130Q143 124 143 117Q143 110 142 103Q141 96 141 90Q130 30 115-23Q100-76 96-125Q92-200 84.50-229Q77-258 68.50-259.50Q60-261 52.50-244Q45-227 41-210Q37-197 40.50-173.50Q44-150 49-124Q54-98 58.50-72.50Q63-47 61-30Q57-6 48 25Q39 56 29.50 84Q20 112 13 133Q6 154 6 160Q2 171 11 179.50Q20 188 31 180Q35 176 38 172.50Q41 169 41 180Q45 204 44.50 223Q44 242 42.50 260Q41 278 40 297Q39 316 41 340Q45 344 51 344.50Q57 345 61 345Q61 370 53.50 399Q46 428 36.50 457.50Q27 487 19.50 516Q12 545 12 570.50Q12 596 22.50 616.50Q33 637 61 650Q60 702 62 730Q64 758 69 767Q74 776 81 770Q88 764 96 750Q104 736 113 716.50Q122 697 131 680Q161 597 188.50 517Q216 437 231 350Q238 320 262.50 293Q287 266 314 239.50Q341 213 362.50 185Q384 157 386 125Q390 153 403 176Q416 199 425 224.50Q434 250 431.50 283Q429 316 401 365Q395 374 398 383.50Q401 393 408 401.50Q415 410 424 417Q433 424 441 430Q413 514 409 564Q405 614 415.50 634.50Q426 655 447 647.50Q468 640 491 610Q493 631 487.50 650Q482 669 474 687.50Q466 706 458 725Q450 744 446 765Q442 773 442.50 784Q443 795 451 795L461 795Z"  horiz-adv-x="667" vert-adv-y="1000"  />

      
      <glyph glyph-name="uni70" unicode="&#x70;" d="M46 535Q48 507 51.50 487Q55 467 61 451.50Q67 436 74.50 423Q82 410 91 395Q95 432 99 447.50Q103 463 116 467Q129 471 155.50 470Q182 469 231 475Q240 474 248 471Q264 466 276 455Q284 444 283 430Q282 416 278 404Q274 390 266 375Q281 341 300.50 307.50Q320 274 328 240.50Q336 207 324.50 174.50Q313 142 266 110Q255 95 249.50 73.50Q244 52 234.50 34.50Q225 17 206.50 9.50Q188 2 151 15L101 0L71-240Q71-272 69.50-307Q68-342 63.50-369Q59-396 50-410Q41-424 26-415L16-285L31-150Q8-133 5.50-108Q3-83 8.50-55.50Q14-28 22.50-0.50Q31 27 31 50Q8 73 1.50 115.50Q-5 158 6 215Q15 267 17.50 324Q20 381 21 427.50Q22 474 24.50 504.50Q27 535 36 535L46 535M181 335Q173 335 163.50 326.50Q154 318 146 310Q138 302 131.50 300Q125 298 119.50 296.50Q114 295 109.50 292Q105 289 101 280Q97 274 93.50 264Q90 254 88.50 242.50Q87 231 87 221Q87 211 91 205Q95 199 103.50 189.50Q112 180 121 167Q130 154 138.50 139.50Q147 125 151 110Q153 101 159.50 109.50Q166 118 173 134Q180 150 185.50 168Q191 186 191 195Q191 202 196.50 206.50Q202 211 209 215.50Q216 220 222.50 225.50Q229 231 231 240Q231 263 221.50 282Q212 301 201 320Q197 328 193 331.50Q189 335 181 335Z"  horiz-adv-x="419" vert-adv-y="1000"  />

      
      <glyph glyph-name="uni71" unicode="&#x71;" d="M316 635Q321 635 321 630Q338 630 344.50 618.50Q351 607 361 589Q371 571 392.50 550Q414 529 461 510Q472 481 473 457.50Q474 434 469.50 412Q465 390 456 368.50Q447 347 439 323Q431 299 425.50 270Q420 241 421 205Q425 179 416 154Q407 129 396 110Q415 95 430 86.50Q445 78 441 70Q435 55 442 42.50Q449 30 463 19Q477 8 494.50-2.50Q512-13 527-24Q542-35 551-47.50Q560-60 556-75Q526-71 501.50-55.50Q477-40 451-25Q402 1 383 23Q364 45 356 60Q326 34 296 12Q266-10 251-25Q230-48 212-61Q194-74 181-75Q168-76 161-63Q154-50 156-20Q156-1 145.50 11.50Q135 24 119 34Q103 44 84.50 52Q66 60 49.50 69.50Q33 79 20.50 90.50Q8 102 6 120Q4 143 11 179.50Q18 216 27 252Q38 293 51 340Q34 351 31.50 375.50Q29 400 34 432Q39 464 48.50 502.50Q58 541 66 580Q72 602 79.50 610.50Q87 619 95 618Q103 617 112 609.50Q121 602 130 594Q139 586 148 580Q157 574 166 575Q179 579 186 582Q193 585 203.50 590.50Q214 596 232 604Q250 612 286 625Q297 629 304.50 630Q312 631 316 635M271 535Q252 535 230.50 522Q209 509 188.50 492.50Q168 476 150 459Q132 442 121 435Q119 422 119.50 395.50Q120 369 121 340.50Q122 312 122.50 286.50Q123 261 121 250Q117 216 129.50 185.50Q142 155 161 125Q176 110 191 110Q202 110 216.50 120Q231 130 246 145L256 155Q248 162 233.50 174.50Q219 187 204.50 201Q190 215 179.50 229.50Q169 244 171 255Q177 272 175 282.50Q173 293 170 300Q167 307 167 310Q167 313 176 315Q187 306 198 297Q207 289 217.50 281Q228 273 236 265Q247 250 256.50 231.50Q266 213 281 205Q303 197 311 190Q317 199 326 217Q335 235 344.50 255Q354 275 361.50 293Q369 311 371 320Q352 342 342 374.50Q332 407 325 437.50Q318 468 311 492.50Q304 517 291 525Q287 529 283 532Q279 535 271 535Z"  horiz-adv-x="647" vert-adv-y="1000"  />

      
      <glyph glyph-name="uni72" unicode="&#x72;" d="M46 810Q50 782 53 753Q56 724 59.50 697Q63 670 68 647.50Q73 625 81 610Q89 644 106.50 685.50Q124 727 166 780Q173 774 177.50 766Q182 758 188 752Q194 746 204.50 744Q215 742 236 750Q245 749 253 746Q269 741 281 730Q286 719 285.50 705Q285 691 282 679Q278 665 271 650Q286 616 304.50 582.50Q323 549 330.50 515.50Q338 482 327 449.50Q316 417 271 385L156 290Q177 266 196.50 241.50Q216 217 228.50 193Q241 169 242 145.50Q243 122 226 100Q242 80 255 62Q266 46 276.50 28Q287 10 291-5Q295-20 293-40Q291-60 288-82.50Q285-105 282-129Q279-153 281-175Q283-198 288.50-217.50Q294-237 299.50-255Q305-273 309-289Q313-305 311-320Q307-337 300-343.50Q293-350 285-352Q276-354 266-350L226-75Q226-77 220-67.50Q214-58 204.50-41.50Q195-25 183.50-4Q172 17 161 40Q153 59 145.50 76.50Q138 94 132 108.50Q126 123 122.50 133.50Q119 144 121 150Q123 180 120.50 203Q118 226 115 242Q111 260 106 275L76 35Q76 3 74.50-32Q73-67 68.50-94Q64-121 55-135Q46-149 31-140L21-10L36 125Q13 142 10.50 167Q8 192 13 219.50Q18 247 25.50 274.50Q33 302 31 325Q12 348 6 390.50Q0 433 11 490Q20 542 22.50 599Q25 656 26 702.50Q27 749 29.50 779.50Q32 810 41 810L46 810M186 610Q178 610 168.50 601.50Q159 593 151 585Q143 577 140.50 569Q138 561 136.50 552Q135 543 133.50 533.50Q132 524 126 515Q124 509 117.50 505Q111 501 105 497.50Q99 494 95.50 490Q92 486 96 480Q100 474 108.50 464.50Q117 455 126 442Q135 429 143.50 414.50Q152 400 156 385Q158 376 164.50 384.50Q171 393 178 409Q185 425 190.50 443Q196 461 196 470Q196 477 192 484.50Q188 492 184 499.50Q180 507 177 514.50Q174 522 176 530Q178 541 185 549Q192 557 198.50 564Q205 571 208.50 578.50Q212 586 206 595Q202 603 198 606.50Q194 610 186 610Z"  horiz-adv-x="430" vert-adv-y="1000"  />

      
      <glyph glyph-name="uni73" unicode="&#x73;" d="M371 415Q386 415 393.50 407.50Q401 400 416 400Q431 398 434 391.50Q437 385 432.50 378Q428 371 417.50 365.50Q407 360 396 360Q387 352 377 347Q369 342 360 338.50Q351 335 346 335Q316 342 286 335Q277 335 266 332Q255 329 245.50 325Q236 321 228 318Q220 315 216 315Q208 319 195 321Q182 323 171 315Q163 309 161 306Q159 303 158.50 300Q158 297 155.50 294Q153 291 146 285Q142 283 139 284.50Q136 286 133.50 287.50Q131 289 128 290.50Q125 292 121 290Q113 282 109 273Q105 264 101 260Q99 258 102.50 250.50Q106 243 112.50 234Q119 225 128 217Q137 209 146 205Q176 209 202 215Q228 221 251 210Q255 206 271.50 205Q288 204 296 200Q311 192 320.50 186.50Q330 181 341 170Q352 166 359.50 156Q367 146 371 135Q379 127 377 114Q375 101 371 90Q367 82 358.50 76.50Q350 71 346 60Q342 52 346 42.50Q350 33 346 25Q338 2 321-15Q304-32 281-40Q275-42 269-40.50Q263-39 256-37.50Q249-36 243-34.50Q237-33 231-35Q223-39 219-45.50Q215-52 211-59Q207-66 202.50-72Q198-78 191-80Q185-82 179.50-80Q174-78 168.50-75Q163-72 157.50-70Q152-68 146-70Q104-81 67-88Q30-95 11-80Q9-78 7-81.50Q5-85 3-90Q1-95-2-98.50Q-5-102-9-100Q-13-100-11-92Q-9-84-9-80Q-7-74-3.50-65Q0-56 4-46.50Q8-37 12.50-29.50Q17-22 21-20Q30-18 39.50-22.50Q49-27 58-32Q67-37 75-40.50Q83-44 91-40Q95-36 96-30.50Q97-25 101-25Q107-19 113.50-17.50Q120-16 127-16Q134-16 141-16.50Q148-17 156-15Q164-11 171-7Q178-3 186 5Q193 9 196.50 20Q200 31 211 35Q219 39 226 39.50Q233 40 241 40Q258 44 271.50 47Q285 50 292 57Q299 64 298 77.50Q297 91 286 115Q282 124 277.50 128.50Q273 133 267 135Q261 137 253 137.50Q245 138 236 140Q221 144 208.50 144Q196 144 181 140Q158 134 139.50 135Q121 136 102 144Q83 152 62.50 167Q42 182 16 205Q12 209 19.50 221.50Q27 234 31 245Q39 264 47.50 284Q56 304 71 315Q79 323 91 322.50Q103 322 111 330Q122 338 128.50 352Q135 366 146 370Q154 374 161 374.50Q168 375 176 375Q184 375 191 372.50Q198 370 206 370Q217 374 224 385Q231 396 246 400Q255 404 265.50 402Q276 400 286 398Q296 396 306.50 395Q317 394 326 400Q356 422 371 415Z"  horiz-adv-x="563" vert-adv-y="1000"  />

      
      <glyph glyph-name="uni74" unicode="&#x74;" d="M261 955Q278 938 274 913Q270 888 259 860Q248 832 237.50 803Q227 774 231 750Q233 739 237 734.50Q241 730 246 727.50Q251 725 255 720.50Q259 716 261 705Q263 694 258 679.50Q253 665 247.50 649Q242 633 238.50 616.50Q235 600 241 585Q248 564 243 539.50Q238 515 229.50 493Q221 471 214 455Q207 439 211 435Q220 427 231 429.50Q242 432 251.50 437Q261 442 269 447Q277 452 281 450Q286 444 287.50 437Q289 430 287 424Q285 417 281 410Q277 399 285.50 401.50Q294 404 309.50 407Q325 410 345 408Q365 406 386 385Q405 366 420.50 357.50Q436 349 442.50 342.50Q449 336 443.50 327.50Q438 319 416 300Q420 268 412 257Q404 246 389.50 249.50Q375 253 356.50 267Q338 281 321 300Q307 277 288.50 280Q270 283 253 295Q233 309 211 335Q216 287 215 247Q214 212 208 180.50Q202 149 186 140Q186 121 189.50 103.50Q193 86 196 70.50Q199 55 198.50 42Q198 29 191 20Q177-4 172-20Q167-36 166-49Q165-62 165.50-75Q166-88 162.50-104.50Q159-121 150-143.50Q141-166 121-200Q110-184 106-175.50Q102-167 102.50-161.50Q103-156 106-150.50Q109-145 113-135Q117-125 119.50-107.50Q122-90 121-60Q121-43 123-24.50Q125-6 126.50 12Q128 30 127.50 47.50Q127 65 121 80Q115 95 109.50 108.50Q104 122 103.50 136Q103 150 108.50 165.50Q114 181 131 200Q140 211 143.50 224.50Q147 238 147 254.50Q147 271 145 291Q143 311 141 335Q139 341 129 342Q119 343 107 344.50Q95 346 83.50 350Q72 354 66 365Q64 372 53.50 376Q43 380 32 382.50Q21 385 12.50 388.50Q4 392 6 400Q6 411 13.50 425Q21 439 36 435Q49 429 55.50 430Q62 431 66 435.50Q70 440 72.50 445.50Q75 451 81 455Q92 459 108.50 461.50Q125 464 136 475Q143 484 140 483Q137 482 132.50 480.50Q128 479 126.50 482.50Q125 486 136 505Q140 524 142.50 546Q145 568 148.50 593.50Q152 619 158.50 647Q165 675 176 705Q176 756 189 801Q202 846 218 881Q236 921 261 955Z"  horiz-adv-x="508" vert-adv-y="1000"  />

      
      <glyph glyph-name="uni75" unicode="&#x75;" d="M391 565Q399 565 405.50 562Q412 559 416 555Q425 542 426.50 528Q428 514 425 499.50Q422 485 417.50 470Q413 455 411 440Q407 427 408.50 414.50Q410 402 412 390.50Q414 379 413.50 367.50Q413 356 406 345Q402 334 395.50 325Q389 316 382.50 307.50Q376 299 371 290Q366 281 366 270Q370 253 367.50 248Q365 243 361.50 240.50Q358 238 356.50 234Q355 230 361 215Q361 207 370 198.50Q379 190 389 181.50Q399 173 405.50 166Q412 159 406 155Q383 141 374.50 134Q366 127 364 122.50Q362 118 362.50 112.50Q363 107 358 97.50Q353 88 339.50 71Q326 54 296 25Q273 45 260.50 47Q248 49 241.50 41Q235 33 233.50 18Q232 3 230.50-12Q229-27 227-38Q225-49 218-49Q211-49 197.50-35Q184-21 161 15Q148 22 135 19Q122 16 108.50 10.50Q95 5 82 3Q69 1 56 10Q43 27 39 46Q35 65 36.50 85.50Q38 106 42.50 126Q47 146 51 165Q36 157 23 166Q10 175 6 190Q2 220 6.50 252Q11 284 26 310Q35 319 45 346.50Q55 374 64.50 405.50Q74 437 82 465.50Q90 494 96 505Q102 518 104.50 515.50Q107 513 110 506.50Q113 500 117.50 495.50Q122 491 131 500L131 495Q125 467 116.50 440.50Q108 414 99.50 387Q91 360 84.50 332.50Q78 305 76 275Q76 262 81 263.50Q86 265 93 274.50Q100 284 107.50 299.50Q115 315 121 330Q137 332 138.50 317.50Q140 303 135 280Q130 257 123 229Q116 201 115.50 176.50Q115 152 125.50 136Q136 120 166 120Q183 105 204 108Q225 111 245.50 126.50Q266 142 282 167Q298 192 306 220Q295 258 302.50 295Q310 332 321 370Q321 385 333.50 398Q346 411 361 415Q376 426 378 442.50Q380 459 376 477Q372 495 366.50 514Q361 533 361 550Q357 558 368.50 561.50Q380 565 391 565Z"  horiz-adv-x="503" vert-adv-y="1000"  />

      
      <glyph glyph-name="uni76" unicode="&#x76;" d="M266 640Q270 640 276.50 632Q283 624 291 605Q298 558 300 523.50Q302 489 301 459.50Q300 430 298 402Q296 374 296 340Q285 332 277 311Q269 290 264.50 262Q260 234 258 204Q256 174 256 150Q260 126 255.50 111.50Q251 97 242.50 88Q234 79 223 74Q212 69 201 65Q190 61 181.50 55.50Q173 50 171 40Q173 2 172.50-23Q172-48 170-64.50Q168-81 165.50-90Q163-99 161-105Q152-94 144.50-94Q137-94 131.50-90.50Q126-87 123.50-73Q121-59 121-20Q105-24 93-15.50Q81-7 73 8Q65 23 61 43Q57 63 55.50 82Q54 101 55.50 116.50Q57 132 61 140L46 265Q42 301 29.50 340Q17 379 8.50 416.50Q0 454 2.50 487.50Q5 521 31 545Q16 587 18.50 604.50Q21 622 36 630L66 530L86 440L126 100Q126 117 134 123.50Q142 130 153 135Q164 140 174.50 146.50Q185 153 191 170Q198 191 200 222Q202 253 201 285.50Q200 318 198 346.50Q196 375 196 390Q205 409 213.50 402.50Q222 396 228.50 385Q235 374 239.50 367.50Q244 361 246 380Q246 387 243 396.50Q240 406 237 421Q234 436 233 458.50Q232 481 236 515Q240 568 247.50 604Q255 640 266 640Z"  horiz-adv-x="382" vert-adv-y="1000"  />

      
      <glyph glyph-name="uni77" unicode="&#x77;" d="M441 930Q460 930 467.50 915Q475 900 471 885Q467 872 464.50 847Q462 822 460 794.50Q458 767 457 741Q456 715 456 700Q452 674 451.50 644.50Q451 615 451 585Q451 579 450 571.50Q449 564 445.50 557.50Q442 551 436 547Q430 543 421 545Q429 515 440 485Q451 455 451 425Q453 417 451.50 409.50Q450 402 445.50 397Q441 392 434.50 390.50Q428 389 421 395Q417 353 419 310Q421 267 421 225Q421 219 421.50 212Q422 205 421.50 198.50Q421 192 419 187Q417 182 411 180Q411 193 410 187.50Q409 182 408.50 173.50Q408 165 407 161.50Q406 158 406 175Q411 175 411 180L411 175Q407 149 407 120.50Q407 92 396 70Q390 42 393 14Q396-14 401.50-42.50Q407-71 411-99Q415-127 411-155Q396-155 385-148Q374-141 366-130Q358-109 356-88Q354-67 353.50-45Q353-23 350.50-2Q348 19 341 40Q331 67 321 84Q311 101 301.50 112.50Q292 124 283.50 132.50Q275 141 267 152.50Q259 164 252.50 180.50Q246 197 241 225Q245 197 246.50 164Q248 131 247 98Q246 65 242 33Q238 1 231-25Q223-44 219.50-69Q216-94 215.50-120Q215-146 217.50-171Q220-196 226-215Q228-219 228.50-225.50Q229-232 227.50-238.50Q226-245 222-250Q218-255 211-255Q188-240 175-216.50Q162-193 151-170Q145-163 146-155.50Q147-148 148.50-140.50Q150-133 151-125.50Q152-118 146-110Q138-114 131.50-116.50Q125-119 121-115Q118-119 118-110.50Q118-102 119-87.50Q120-73 121-54.50Q122-36 123-19Q124-2 123.50 10Q123 22 121 25Q112 36 102 44.50Q92 53 84 61.50Q76 70 71 80Q66 90 66 105Q66 114 65.50 136.50Q65 159 66 183.50Q67 208 70 228.50Q73 249 81 255Q85 287 83.50 301.50Q82 316 78.50 327.50Q75 339 70 353.50Q65 368 61 400Q55 398 49 393.50Q43 389 36 385Q29 381 23 380Q17 379 11 385Q-4 415-3.50 448Q-3 481 1 515Q5 526 5 539Q5 552 6 564Q7 576 11 586.50Q15 597 26 605Q34 609 37 615.50Q40 622 36 630Q17 675 16 720Q15 765 11 810Q9 817 11.50 823.50Q14 830 18 833Q22 836 27 836Q32 836 36 830Q45 813 49.50 795.50Q54 778 56.50 759.50Q59 741 60.50 722.50Q62 704 66 685Q83 693 91 685Q97 672 97.50 658Q98 644 96.50 630Q95 616 93 602Q91 588 91 575Q113 567 121 545Q136 470 136 392Q136 314 136 235Q136 231 135.50 222.50Q135 214 134.50 206Q134 198 134 193.50Q134 189 136 195Q151 233 163.50 272.50Q176 312 191 350Q191 369 187.50 388.50Q184 408 180.50 428Q177 448 176 468.50Q175 489 181 510Q181 519 185.50 528.50Q190 538 197 545Q204 552 213 554Q222 556 231 550Q235 561 237.50 580Q240 599 251 610Q257 617 265 618Q273 619 280.50 614.50Q288 610 293 602Q298 594 296 585Q288 543 292.50 502.50Q297 462 301 420Q312 367 325 317Q338 267 346 210Q350 244 353 277.50Q356 311 356 345Q354 342 355.50 350.50Q357 359 361.50 373.50Q366 388 372 405.50Q378 423 383.50 439.50Q389 456 392.50 468.50Q396 481 396 485Q396 517 385.50 533Q375 549 363 562.50Q351 576 343 592Q335 608 341 640Q367 642 379 670.50Q391 699 395.50 737.50Q400 776 399.50 816Q399 856 401 880Q401 891 406.50 888Q412 885 431 885Q433 881 433.50 887.50Q434 894 434.50 903.50Q435 913 436 921.50Q437 930 441 930Z"  horiz-adv-x="538" vert-adv-y="1000"  />

      
      <glyph glyph-name="uni78" unicode="&#x78;" d="M371 655Q385 630 385.50 618Q386 606 379 600.50Q372 595 361 594.50Q350 594 339.50 591.50Q329 589 323 582.50Q317 576 321 560Q323 549 319.50 541.50Q316 534 311 528Q306 522 302.50 515.50Q299 509 301 500Q303 489 305 483.50Q307 478 310 472.50Q313 467 316.50 458Q320 449 326 430Q335 404 327 385.50Q319 367 307 353.50Q295 340 285 329.50Q275 319 281 310Q287 296 290.50 290.50Q294 285 297.50 282.50Q301 280 306 279Q311 278 319.50 274Q328 270 341.50 260Q355 250 376 230Q397 209 398.50 200.50Q400 192 394 189Q388 186 379.50 186.50Q371 187 371 185Q371 168 383 155Q395 142 412 130.50Q429 119 447 107Q465 95 476 80Q500 52 518.50 36Q537 20 544.50 10.50Q552 1 546-6.50Q540-14 516-25Q518-51 511-56Q504-61 490.50-49Q477-37 457.50-10Q438 17 416 55Q397 59 373 88Q349 117 327 151Q301 191 276 240Q280 200 278 173Q277 161 274.50 151.50Q272 142 267 136.50Q262 131 254.50 131Q247 131 236 140Q234 129 237.50 112Q241 95 244 80Q247 65 247.50 55.50Q248 46 241 50Q220 54 210.50 43Q201 32 195.50 13.50Q190-5 186.50-29Q183-53 176-75Q172-84 169-96Q166-108 160.50-118Q155-128 147-133.50Q139-139 126-135Q115-105 113.50-85Q112-65 116-50Q122-35 131-22Q140-9 149 5Q158 19 164.50 35.50Q171 52 171 75Q171 88 174 98.50Q177 109 178.50 119.50Q180 130 179 143Q178 156 171 175Q165 192 159 208.50Q153 225 152.50 235.50Q152 246 160 248.50Q168 251 191 240Q206 232 207.50 240Q209 248 204.50 264.50Q200 281 192.50 302.50Q185 324 181 345Q181 351 169 366Q157 381 141.50 400.50Q126 420 111.50 440Q97 460 91 475Q87 484 73.50 502Q60 520 45.50 538Q31 556 20 571Q9 586 11 590Q11 598 21.50 595.50Q32 593 51 570Q68 546 76.50 536.50Q85 527 90.50 524Q96 521 99.50 521Q103 521 111 515Q118 507 139 486.50Q160 466 183 443.50Q206 421 225.50 402.50Q245 384 251 380Q257 377 257 383.50Q257 390 254.50 400Q252 410 248 422.50Q244 435 242.50 445Q241 455 243.50 461Q246 467 256 465Q262 472 261.50 486.50Q261 501 262 516Q263 531 268.50 543.50Q274 556 291 560Q293 595 306 614.50Q319 634 333 643Q350 654 371 655Z"  horiz-adv-x="623" vert-adv-y="1000"  />

      
      <glyph glyph-name="uni79" unicode="&#x79;" d="M39 642Q68 594 91 546.50Q114 499 143 452Q159 443 167 428Q175 413 179.50 396.50Q184 380 187 363Q190 346 196 332Q212 317 223 300Q234 283 237 260Q238 254 242 258.50Q246 263 250.50 271Q255 279 259.50 287.50Q264 296 267 299Q282 304 294.50 318Q307 332 305 351Q322 375 344 400.50Q366 426 387 451Q390 434 386.50 419Q383 404 376.50 390Q370 376 362 361.50Q354 347 347 331Q341 310 334 287.50Q327 265 312 249Q311 238 305 226.50Q299 215 300 199Q298 185 289.50 172.50Q281 160 272 148Q263 136 255 123Q247 110 245 96Q243 76 236.50 57Q230 38 217 27Q206 12 207-1Q208-14 204-39L154-255Q150-269 137.50-288.50Q125-308 109-328Q93-348 76-365.50Q59-383 45.50-392.50Q32-402 25-401.50Q18-401 23-384Q29-363 37.50-342.50Q46-322 54.50-302Q63-282 70.50-261Q78-240 81-218Q84-207 89-200Q94-193 98.50-187Q103-181 104.50-175Q106-169 102-160Q99-149 104.50-139Q110-129 118-119Q126-109 133.50-99Q141-89 142-77Q142-69 136-63.50Q130-58 125-52Q120-46 118.50-38.50Q117-31 126-19Q130-12 135-6Q140 0 142 6.50Q144 13 141 20.50Q138 28 126 38Q117 43 120.50 50.50Q124 58 133.50 66.50Q143 75 154.50 84Q166 93 171 102Q177 115 176 131Q175 147 171 163.50Q167 180 163.50 196.50Q160 213 162 229Q164 235 160.50 234.50Q157 234 152 232Q147 230 141.50 230Q136 230 134 237Q136 257 130 280Q124 303 112 319Q93 345 81 373Q69 401 61 430Q54 456 47.50 481.50Q41 507 55 527Q53 550 44 576Q35 602 28 628Q30 633 29 641Q28 649 32 650L39 642Z"  horiz-adv-x="483" vert-adv-y="1000"  />

      
      <glyph glyph-name="uni7a" unicode="&#x7a;" d="M48 800Q63 800 84 789.50Q105 779 129 764Q153 749 179 733.50Q205 718 229.50 708.50Q254 699 276.50 698.50Q299 698 316 713Q332 728 354 729Q376 730 398 721.50Q420 713 437.50 699.50Q455 686 463 673Q471 681 475 677.50Q479 674 477 663Q478 655 475.50 652Q473 649 469.50 648Q466 647 462 646.50Q458 646 455 642Q440 619 433 590.50Q426 562 421.50 532.50Q417 503 411 474.50Q405 446 393 423Q391 417 386.50 419Q382 421 377 424Q372 427 366.50 429.50Q361 432 357 428Q344 417 339 393.50Q334 370 327 347Q323 333 320.50 317.50Q318 302 314.50 287Q311 272 305 258Q299 244 289 235Q272 227 256.50 212.50Q241 198 232 179Q227 169 223.50 157.50Q220 146 215.50 135.50Q211 125 205 117.50Q199 110 189 108Q183 110 178 106.50Q173 103 171 97.50Q169 92 170.50 85Q172 78 177 72Q187 61 203 58.50Q219 56 235 52Q253 48 272 43Q291 38 310.50 34.50Q330 31 349 30.50Q368 30 387 36Q396 40 398 48Q400 56 399 65.50Q398 75 396 85Q394 95 395 103Q407 103 420 92Q433 81 446 77Q458 66 470.50 60.50Q483 55 495.50 51.50Q508 48 520.50 45Q533 42 546 36Q553 34 555.50 28Q558 22 556.50 15Q555 8 551 1.50Q547-5 543-9Q534-9 524.50-3.50Q515 2 505.50 7.50Q496 13 485.50 16.50Q475 20 465 16Q453 4 438.50 1Q424-2 409-3Q394-4 379-5.50Q364-7 350-15Q325-34 293.50-29.50Q262-25 230-9Q215 2 199 6.50Q183 11 166.50 10.50Q150 10 134 6Q118 2 102-4Q99-2 95-4Q91-6 87.50-8.50Q84-11 80.50-12Q77-13 75-9Q73 10 60.50 13Q48 16 37 16Q44 31 58.50 35.50Q73 40 84 52Q94 77 104 103.50Q114 130 125.50 156Q137 182 151 205Q165 228 184 245Q191 252 199 256.50Q207 261 215.50 265Q224 269 232 273.50Q240 278 247 286Q254 314 258 343.50Q262 373 266 402.50Q270 432 275.50 460Q281 488 292 515Q302 557 328.50 581.50Q355 606 386 622Q364 630 345.50 629Q327 628 305 632Q279 647 251.50 652.50Q224 658 202 642Q185 648 168.50 647.50Q152 647 136.50 644Q121 641 106 636Q91 631 76 627Q72 634 73.50 643.50Q75 653 77.50 663Q80 673 80.50 683.50Q81 694 75 703Q68 711 59.50 713.50Q51 716 41.50 715Q32 714 23.50 710.50Q15 707 8 703Q8 726 13.50 750.50Q19 775 29 795Q32 799 37.50 799.50Q43 800 48 800Z"  horiz-adv-x="648" vert-adv-y="1000"  />

      
      <glyph glyph-name="uni61" unicode="&#x61;" d="M186 790Q190 782 192.50 772Q195 762 196.50 744Q198 726 198 698.50Q198 671 196 630Q202 613 209 600.50Q216 588 221.50 572.50Q227 557 227.50 533Q228 509 221 470Q223 442 223.50 414Q224 386 227 361.50Q230 337 236.50 318Q243 299 256 290Q256 252 258.50 221Q261 190 262.50 157Q264 124 262 84Q260 44 251-10L191 95L176 260L141 290L101 180L81 80L41-35Q26-27 24-6Q22 15 41 60Q11 88 8 125.50Q5 163 14.50 204.50Q24 246 38 290Q52 334 56 375L71 515Q65 528 64 548Q63 568 69 586Q75 604 90 615Q105 626 131 620Q131 663 136 690Q141 717 149 735Q157 753 167 765Q177 777 186 790M151 565Q138 521 128 486Q120 456 113 430Q106 404 106 400Q112 415 117.50 423Q123 431 130 429.50Q137 428 146 416Q155 404 166 380L151 470L151 565Z"  horiz-adv-x="337" vert-adv-y="1000"  />

      
      <glyph glyph-name="uni41" unicode="&#x41;" d="M186 790Q190 782 192.50 772Q195 762 196.50 744Q198 726 198 698.50Q198 671 196 630Q202 613 209 600.50Q216 588 221.50 572.50Q227 557 227.50 533Q228 509 221 470Q223 442 223.50 414Q224 386 227 361.50Q230 337 236.50 318Q243 299 256 290Q256 252 258.50 221Q261 190 262.50 157Q264 124 262 84Q260 44 251-10L191 95L176 260L141 290L101 180L81 80L41-35Q26-27 24-6Q22 15 41 60Q11 88 8 125.50Q5 163 14.50 204.50Q24 246 38 290Q52 334 56 375L71 515Q65 528 64 548Q63 568 69 586Q75 604 90 615Q105 626 131 620Q131 663 136 690Q141 717 149 735Q157 753 167 765Q177 777 186 790M151 565Q138 521 128 486Q120 456 113 430Q106 404 106 400Q112 415 117.50 423Q123 431 130 429.50Q137 428 146 416Q155 404 166 380L151 470L151 565Z"  horiz-adv-x="337" vert-adv-y="1000"  />

      
      <glyph glyph-name="uni42" unicode="&#x42;" d="M151 925Q166 925 176.50 916.50Q187 908 191 900Q198 883 190.50 867.50Q183 852 170.50 836.50Q158 821 145.50 805Q133 789 131 770Q129 757 133 743.50Q137 730 142.50 716.50Q148 703 153.50 689Q159 675 161 660Q163 622 157.50 582Q152 542 143.50 503.50Q135 465 126 430.50Q117 396 111 370Q109 359 111 351Q113 343 115.50 337Q118 331 119 326Q120 321 116 315Q110 296 108.50 276Q107 256 108.50 240.50Q110 225 116 217Q122 209 131 215Q157 232 188.50 245Q220 258 248 267Q276 276 295 280.50Q314 285 316 285Q322 283 315 287Q308 291 298 297.50Q288 304 280 311.50Q272 319 276 325Q282 340 301.50 343.50Q321 347 344.50 343.50Q368 340 390 330.50Q412 321 421 310Q427 304 422 297.50Q417 291 410 283.50Q403 276 397.50 267.50Q392 259 396 250Q415 203 416 158.50Q417 114 397.50 80Q378 46 335.50 27.50Q293 9 226 15Q202 17 179 7.50Q156-2 134.50-5.50Q113-9 92.50 3Q72 15 51 60Q47 69 37.50 77Q28 85 18.50 93.50Q9 102 1 112.50Q-7 123-6.50 136.50Q-6 150 4.50 168Q15 186 41 210Q41 233 43 254Q45 272 47.50 291.50Q50 311 56 325Q63 357 70.50 400Q78 443 83 488.50Q88 534 90.50 577.50Q93 621 91 655Q91 670 86.50 680Q82 690 76.50 697Q71 704 67.50 709Q64 714 66 720Q75 748 81.50 775.50Q88 803 95 828.50Q102 854 111.50 876Q121 898 136 915Q140 919 143.50 922Q147 925 151 925M336 250Q332 250 325.50 244Q319 238 312.50 230Q306 222 301 212Q296 202 296 195Q296 187 298 179.50Q300 172 302 166Q304 160 304.50 156.50Q305 153 301 155Q293 157 289 164Q285 171 281 179Q277 187 272.50 193.50Q268 200 261 200Q247 204 230.50 195.50Q214 187 198 176Q180 163 161 145Q150 139 140.50 130Q131 121 128.50 110Q126 99 131.50 86Q137 73 156 60Q165 54 180.50 54.50Q196 55 213 58.50Q230 62 248 68Q266 74 281 80Q292 84 308 87Q324 90 338.50 95Q353 100 361.50 107Q370 114 366 125Q362 132 357 147.50Q352 163 348 180.50Q344 198 341.50 214.50Q339 231 341 240Q341 250 336 250Z"  horiz-adv-x="490" vert-adv-y="1000"  />

      
      <glyph glyph-name="uni43" unicode="&#x43;" d="M16 175Q10 186 14 201.50Q18 217 27.50 236Q37 255 48.50 277Q60 299 69.50 322.50Q79 346 83 370.50Q87 395 81 420Q72 454 74 486.50Q76 519 88.50 546Q101 573 122 592.50Q143 612 171 620Q173 646 183 667.50Q193 689 207 704Q221 719 237 727Q253 735 266 735Q274 735 282.50 728Q291 721 291 710Q317 708 340 703Q360 698 377.50 690.50Q395 683 401 670Q408 644 394.50 634Q381 624 357.50 620Q334 616 307 613.50Q280 611 261 600Q253 598 251.50 591.50Q250 585 250 576Q250 567 250 557Q250 547 246 540Q241 519 229 501.50Q217 484 203.50 468Q190 452 178.50 436Q167 420 162 401.50Q157 383 161.50 361Q166 339 186 310Q165 265 154 232.50Q143 200 139.50 178.50Q136 157 138 145.50Q140 134 146 130Q159 121 167 125.50Q175 130 183 140Q191 150 201.50 162Q212 174 231 180L281 190Q290 191 294 183Q298 175 300.50 165Q303 155 307 145Q311 135 320 133Q329 131 344.50 140Q360 149 386 175Q393 184 396.50 166.50Q400 149 394 123.50Q388 98 370 75Q352 52 316 50Q301 48 292.50 35.50Q284 23 275 13.50Q266 4 253 5Q240 6 216 30Q210 36 204.50 25.50Q199 15 194.50-5Q190-25 185-49Q180-73 174-93.50Q168-114 161.50-126.50Q155-139 146-135Q140-133 138-124Q136-115 134-102Q132-89 127-75Q122-61 111-50Q94-31 91.50-10.50Q89 10 91.50 27Q94 44 96 56Q98 68 91 70Q81 72 69 70Q57 68 47.50 68Q38 68 32.50 72.50Q27 77 29.50 93.50Q32 110 45 141Q58 172 86 225Q92 232 83.50 222.50Q75 213 62 200Q49 187 35.50 177Q22 167 16 175Z"  horiz-adv-x="502" vert-adv-y="1000"  />

      
      <glyph glyph-name="uni44" unicode="&#x44;" d="M236 935Q246 935 246 930L261 800L241 665Q265 650 269 626Q273 602 268 575Q263 548 254.50 520Q246 492 246 470Q269 444 273 401Q277 358 266 305Q257 252 254.50 195Q252 138 251 90Q250 42 247.50 11Q245-20 236-20Q234-20 233-19Q231-17 231-15Q227 11 223 30Q219 49 214 64Q209 79 202 92Q195 105 186 120Q182 95 179 80.50Q176 66 170.50 59Q165 52 156.50 50Q148 48 133 47.50Q118 47 95.50 46Q73 45 41 40Q33 41 25 45Q18 48 11.50 52.50Q5 57 1 65Q-7 74-7 87.50Q-7 101-4 114Q0 129 6 145Q-9 177-28 209.50Q-47 242-54.50 275Q-62 308-50.50 340.50Q-39 373 6 405Q19 420 24.50 441.50Q30 463 39 481Q48 499 65.50 507.50Q83 516 121 505L176 515L201 755Q203 785 205 817Q207 849 211 875Q215 901 221 918Q227 935 236 935M121 410Q117 410 111 398.50Q105 387 99 372Q93 357 88 342Q83 327 81 320Q81 312 76 308Q71 304 65 300Q59 296 53.50 291.50Q48 287 46 280Q42 257 51 237.50Q60 218 71 195Q79 187 83 186Q87 185 91 185Q102 185 111 192Q120 199 131 210Q138 217 144 219.50Q150 222 155.50 222.50Q161 223 165.50 225Q170 227 176 235Q178 241 180.50 251Q183 261 185 272.50Q187 284 187.50 294Q188 304 186 310Q180 316 171 325.50Q162 335 152.50 348Q143 361 135.50 375.50Q128 390 126 405L121 410Z"  horiz-adv-x="433" vert-adv-y="1000"  />

      
      <glyph glyph-name="uni45" unicode="&#x45;" d="M336 535Q366 541 379.50 525Q393 509 398 483.50Q403 458 404 429.50Q405 401 411 380Q406 372 406.50 363.50Q407 355 407.50 346.50Q408 338 405.50 330.50Q403 323 391 319Q379 315 355.50 315.50Q332 316 291 322Q283 311 274.50 299Q266 287 254 279.50Q242 272 227 272Q212 272 191 285L136 240L171 45L266 35L346 40L371 150L401 135L431 185L406 20Q378 1 358-10Q338-21 323-25.50Q308-30 296-27Q284-24 271-15Q224-34 197-42.50Q170-51 156-52.50Q142-54 137.50-51.50Q133-49 131-45Q129-2 118.50 38.50Q108 79 93 112.50Q78 146 60.50 171.50Q43 197 26 210Q20 214 20.50 222Q21 230 24.50 239.50Q28 249 34 260Q40 271 46 280Q44 310 35.50 342Q27 374 26.50 404.50Q26 435 41 462Q56 489 101 510Q88 532 95 543.50Q102 555 121.50 560.50Q141 566 168 567Q195 568 221 570L336 535M246 490Q223 490 209 485.50Q195 481 191 470L156 435L106 400L121 345Q149 341 178.50 336.50Q208 332 235 333.50Q262 335 285.50 346Q309 357 326 385Q309 392 302.50 404Q296 416 295.50 429.50Q295 443 298.50 457.50Q302 472 306 485Q287 485 272 487.50Q257 490 246 490Z"  horiz-adv-x="530" vert-adv-y="1000"  />

      
      <glyph glyph-name="uni46" unicode="&#x46;" d="M-56 237Q-41 241-22 241Q-3 241 17 239Q21 245 29.50 248Q38 251 46 257Q54 263 59 275Q64 287 61 311L64 337Q59 337 51 346Q34 365 28.50 380.50Q23 396 23.50 410Q24 424 29.50 437.50Q35 451 41 466Q47 481 47.50 498.50Q48 516 46.50 534Q45 552 43 570.50Q41 589 41 606Q13 649 13 668Q13 687 31 692.50Q49 698 79.50 694.50Q110 691 142.50 688Q175 685 205 687Q235 689 251 706Q294 703 327.50 692.50Q361 682 374 669Q387 656 375 642.50Q363 629 316 621Q273 617 257.50 621Q242 625 239 628.50Q236 632 236.50 632Q237 632 226 621Q222 619 207.50 615Q193 611 177.50 605Q162 599 150.50 590.50Q139 582 141 571Q146 551 143 537Q140 523 134.50 509.50Q129 496 123 480.50Q117 465 116 443Q115 421 121 389Q127 357 146 311Q159 344 165.50 342Q172 340 172.50 320Q173 300 168 269.50Q163 239 155 214Q194 209 224.50 211.50Q255 214 277.50 218.50Q300 223 315.50 227.50Q331 232 340 230Q349 228 353 217.50Q357 207 356 183Q356 178 343 177Q330 176 312 175Q294 174 276.50 171Q259 168 251 158L131 130Q129 120 127 115Q116 61 119.50 25Q123-11 121-25Q115-40 115-43.50Q115-47 121-49.50Q127-52 138-58Q149-64 166-85Q173-94 174-96.50Q175-99 172.50-100Q170-101 166.50-104Q163-107 161-116Q157-142 166-160Q175-178 184-192.50Q193-207 195.50-220.50Q198-234 181-251Q173-278 157.50-291Q142-304 126.50-295Q111-286 101-251.50Q91-217 96-149Q85-119 78.50-91Q72-63 68.50-38.50Q65-14 62.50 7.50Q60 29 56 46Q45 65 46 82.50Q47 100 52 117Q33 123 11 133L-56 237Z"  horiz-adv-x="533" vert-adv-y="1000"  />

      
      <glyph glyph-name="uni47" unicode="&#x47;" d="M126 565Q135 563 139 546Q143 529 149.50 509.50Q156 490 169.50 475.50Q183 461 211 465Q224 465 238.50 448Q253 431 262.50 409Q272 387 273 365.50Q274 344 261 335Q250 327 254 320.50Q258 314 269 306Q280 298 292.50 288Q305 278 311 265Q317 248 316 228Q315 208 311 188.50Q307 169 302.50 151Q298 133 296 120Q315 105 319.50 77.50Q324 50 329 13.50Q334-23 347-67Q360-111 396-160Q409-177 400.50-196Q392-215 373-232.50Q354-250 329.50-265.50Q305-281 286-290Q258-305 225-315Q192-325 158.50-327Q125-329 92-323Q59-317 31-300Q5-285-8.50-255.50Q-22-226-29-200Q-31-181-33-157Q-35-133-33-111.50Q-31-90-23.50-75Q-16-60 1-60Q29-60 40.50-71.50Q52-83 51.50-99Q51-115 41-132Q31-149 16-160Q-2-172 1.50-185.50Q5-199 20-209.50Q35-220 57-226Q79-232 99-230Q119-228 133-216.50Q147-205 146-180Q145-170 153.50-169.50Q162-169 176.50-173Q191-177 209-183.50Q227-190 243.50-194.50Q260-199 273-199Q286-199 291-190Q306-169 304-143Q302-117 292.50-88.50Q283-60 271.50-30.50Q260-1 256 25Q228 10 211.50 10Q195 10 183 18.50Q171 27 161 40.50Q151 54 136 65Q123 72 105 74.50Q87 77 68.50 81.50Q50 86 32 97.50Q14 109 1 135Q-1 154 8 176.50Q17 199 29 219Q43 242 61 265Q65 302 61 329Q57 356 51.50 378.50Q46 401 43 422.50Q40 444 46 470Q61 523 84 544Q107 565 126 565M161 425Q140 423 134.50 407Q129 391 129.50 369Q130 347 132.50 323Q135 299 131 280Q129 261 120 239Q111 217 104.50 196Q98 175 98.50 157Q99 139 116 130Q127 122 139.50 125Q152 128 164 136.50Q176 145 185.50 157Q195 169 201 180Q208 195 209 211Q210 227 207 242.50Q204 258 199.50 274Q195 290 191 305Q189 320 190 340.50Q191 361 189.50 380Q188 399 182 412Q176 425 161 425Z"  horiz-adv-x="525" vert-adv-y="1000"  />

      
      <glyph glyph-name="uni48" unicode="&#x48;" d="M86 975Q99 975 99.50 966.50Q100 958 96 946Q92 934 88.50 920Q85 906 91 895L96 895Q115 895 119.50 869Q124 843 122 805Q120 767 115.50 722Q111 677 111 640L131 535Q140 533 149.50 529Q159 525 169 522Q179 519 189.50 517.50Q200 516 211 520Q233 557 246 571.50Q259 586 265 586.50Q271 587 273 576.50Q275 566 276 551.50Q277 537 279 522Q281 507 287 499Q293 491 305.50 493Q318 495 341 515Q371 486 385 469Q399 452 404 442.50Q409 433 409 427.50Q409 422 411.50 417.50Q414 413 422 406Q430 399 451 385Q462 372 456 358.50Q450 345 438 328.50Q426 312 415 291.50Q404 271 406 245Q393 260 390 262Q387 264 389 260Q391 256 396.50 250.50Q402 245 406 245Q414 237 425 223Q436 209 451 190Q475 160 484 123.50Q493 87 491.50 55Q490 23 481 1.50Q472-20 461-20Q459-24 449-25Q439-26 428-24.50Q417-23 409.50-19.50Q402-16 406-10Q408 7 414 26Q420 45 423 63Q426 81 423.50 97.50Q421 114 406 125Q391 129 378.50 140Q366 151 366 170Q358 208 349 245Q340 282 351 320Q343 348 327.50 373Q312 398 292.50 413.50Q273 429 251.50 432Q230 435 211 420Q187 418 171.50 393Q156 368 149.50 329Q143 290 145 242Q147 194 156 145Q160 121 167 97.50Q174 74 180.50 53Q187 32 191.50 15.50Q196-1 195-11.50Q194-22 185-25Q176-28 156-20Q147-14 136.50-4.50Q126 5 115.50 7.50Q105 10 93.50 1Q82-8 71-40L66 80L81 220L71 230Q56 252 56 280Q45 295 37.50 309.50Q30 324 26 335Q20 359 23.50 393Q27 427 33 459Q40 496 51 535Q53 567 49 606.50Q45 646 39.50 686.50Q34 727 28.50 764.50Q23 802 21 830Q17 873 14.50 897.50Q12 922 13.50 935Q15 948 23.50 953.50Q32 959 51 965Q62 969 72 972Q82 975 86 975Z"  horiz-adv-x="587" vert-adv-y="1000"  />

      
      <glyph glyph-name="uni49" unicode="&#x49;" d="M86 920L136 900Q151 889 160.50 874Q170 859 167 835Q164 811 145.50 773.50Q127 736 86 680Q66 694 50 709Q36 722 24.50 736.50Q13 751 11 765Q7 780 10.50 799Q14 818 20 835Q26 854 36 875Q30 890 22 905Q14 920 12.50 935Q11 950 21 965Q31 980 61 995L86 920M136 535L116 375Q130 358 142 341Q153 327 162.50 310Q172 293 176 280Q181 255 178 221.50Q175 188 169 156Q162 119 151 80Q144 39 145 7Q146-25 150.50-49Q155-73 159-89Q163-105 161.50-115Q160-125 149.50-128.50Q139-132 114-131Q93-131 86.50-128.50Q80-126 80-115.50Q80-105 84.50-84Q89-63 91-25L66 95Q58 97 51 99.50Q44 102 42 113.50Q40 125 46 148.50Q52 172 71 215L66 468Q61 453 55 443Q50 435 42.50 429.50Q35 424 26 430Q15 436 9.50 448.50Q4 461 3.50 476.50Q3 492 5.50 510Q8 528 13 546Q24 587 46 635Q55 629 65.50 619.50Q76 610 86.50 607.50Q97 605 108.50 614Q120 623 131 655L136 535Z"  horiz-adv-x="297" vert-adv-y="1000"  />

      
      <glyph glyph-name="uni4a" unicode="&#x4a;" d="M104 854Q123 854 139 841Q155 828 159 794L204 779Q221 740 218.50 722Q216 704 204 695Q192 686 174.50 680Q157 674 144 659Q127 647 114 641Q103 636 92 635.50Q81 635 79 649Q76 663 71 682.50Q66 702 61 722Q55 744 49 769Q32 778 32 792Q32 806 42.50 819Q53 832 70 842Q87 852 104 854M143 582Q158 569 167.50 560Q177 551 184 534.50Q191 518 198 488Q205 458 214 404Q228 388 240 372Q251 358 260.50 342.50Q270 327 274 314Q279 289 278.50 250Q278 211 275 173Q271 129 264 80Q268 41 272.50 7Q277-27 280-59.50Q283-92 284-125Q285-158 281-195Q273-246 254.50-283.50Q236-321 213-343.50Q190-366 166.50-372Q143-378 126-365Q113-356 99-332Q85-308 70.50-266.50Q56-225 41-165.50Q26-106 11-25Q18-4 32.50-11.50Q47-19 62.50-47Q78-75 91.50-119Q105-163 111-215Q113-232 121.50-241Q130-250 143-254Q156-258 171-257.50Q186-257 201-255Q202-190 199-130Q198-105 196-78.50Q194-52 190.50-27.50Q187-3 182 18.50Q177 40 171 55L146 175Q138 179 131 182.50Q124 186 122 197.50Q120 209 126 231.50Q132 254 151 295Q154 333 148.50 350Q143 367 135 374Q127 381 118.50 383Q110 385 106.50 391.50Q103 398 106 413.50Q109 429 124 464Q113 470 107.50 478Q102 486 101.50 495Q101 504 103.50 514Q106 524 111 534Q122 557 143 582Z"  horiz-adv-x="447" vert-adv-y="1000"  />

      
      <glyph glyph-name="uni4b" unicode="&#x4b;" d="M126 945Q147 932 151.50 908.50Q156 885 151.50 856.50Q147 828 137.50 796.50Q128 765 121 735Q136 724 144.50 708.50Q153 693 155 676Q157 659 152 642Q147 625 136 610Q127 599 122.50 580.50Q118 562 118.50 545Q119 528 126 517Q133 506 146 510Q168 516 182.50 533Q197 550 208 568Q219 586 228.50 600.50Q238 615 251 615L266 595Q297 649 319.50 682Q342 715 358 734Q374 753 385.50 761Q397 769 406 772.50Q415 776 423 777.50Q431 779 441 785L381 685Q364 664 345 645.50Q326 627 309.50 606.50Q293 586 282 561.50Q271 537 271 505Q269 490 254 479.50Q239 469 221 457Q203 445 188 429.50Q173 414 171 390Q171 361 184 343.50Q197 326 214.50 313Q232 300 250.50 288.50Q269 277 281 260L321 135Q335 148 342 133Q349 118 352.50 86Q356 54 356 10Q356-34 356-81Q356-128 356.50-173Q357-218 361-250Q363-265 359.50-274.50Q356-284 350-285.50Q344-287 336-279Q328-271 321-250L291-145Q283-119 273.50-83.50Q264-48 256-16Q246 21 236 60Q228 94 220.50 127Q213 160 202.50 190Q192 220 178.50 245.50Q165 271 146 290L131 260L121 275Q117 196 99 131.50Q81 67 66 25Q64 2 60-16Q56-31 49-42.50Q42-54 31-50Q37-18 40.50 17.50Q44 53 48 92.50Q52 132 58.50 175Q65 218 76 265L56 305L76 445Q77 454 74 448.50Q71 443 65 430.50Q59 418 51.50 401.50Q44 385 37 371.50Q30 358 24 351Q18 344 16 350Q5 378 4.50 406Q4 434 9 461Q14 488 22 514.50Q30 541 36 565Q39 575 42 600Q45 625 49 657.50Q53 690 57 727Q61 764 66 799Q71 834 76 863.50Q81 893 86.50 910Q92 927 98 929Q104 931 111 910L126 945L126 945Z"  horiz-adv-x="542" vert-adv-y="1000"  />

      
      <glyph glyph-name="uni4c" unicode="&#x4c;" d="M171 920Q188 903 185.50 889.50Q183 876 174 861.50Q165 847 156 829Q147 811 151 785Q155 766 168.50 744.50Q182 723 186 700Q188 689 180.50 681.50Q173 674 164.50 667Q156 660 150.50 651Q145 642 151 627Q153 618 146 596Q139 574 134.50 542.50Q130 511 132.50 472Q135 433 156 390Q158 386 160.50 393.50Q163 401 166 410Q169 419 171.50 426.50Q174 434 176 430Q189 413 189.50 394.50Q190 376 183.50 357Q177 338 166 318.50Q155 299 146 280Q127 234 121 202Q115 170 116 148Q117 126 123 110.50Q129 95 134.50 81.50Q140 68 143 54Q146 40 141 20Q139 9 149 10.50Q159 12 172.50 18Q186 24 199 30.50Q212 37 216 35Q227 24 228 13.50Q229 3 234-5Q239-13 256-19.50Q273-26 316-30Q335-49 351-57.50Q367-66 374-72.50Q381-79 375.50-87.50Q370-96 346-115Q350-147 342-157.50Q334-168 319.50-164Q305-160 286.50-146Q268-132 251-115Q237-138 219.50-135Q202-132 185-120Q166-106 146-80Q107-95 74-103Q41-111 24-105.50Q7-100 9-79Q11-58 41-15Q41 2 43 20.50Q45 39 46.50 57Q48 75 47.50 92.50Q47 110 41 125Q35 140 29.50 153.50Q24 167 23.50 181Q23 195 28.50 210.50Q34 226 51 245Q62 256 66 254Q70 252 69.50 249.50Q69 247 66 251.50Q63 256 61 280Q65 305 59 317Q53 329 44 335Q35 341 26.50 344.50Q18 348 16 355Q14 362 22.50 376.50Q31 391 56 420Q63 429 60 443Q57 457 52.50 473.50Q48 490 46.50 508Q45 526 56 545Q60 562 62.50 583.50Q65 605 68.50 629.50Q72 654 78.50 682Q85 710 96 740Q96 793 107.50 827Q119 861 133 882Q150 906 171 920Z"  horiz-adv-x="462" vert-adv-y="1000"  />

      
      <glyph glyph-name="uni4d" unicode="&#x4d;" d="M482 930Q486 906 479 866.50Q472 827 465 786.50Q458 746 457 711Q456 676 471 661Q477 626 478 592Q479 558 478 523Q477 488 475.50 453Q474 418 476 382Q476 386 484 385.50Q492 385 492 378Q494 355 493 323Q492 291 491 256.50Q490 222 490.50 190Q491 158 497 136Q497 125 500 128.50Q503 132 507 136Q519 143 528 135.50Q537 128 533 117Q531 88 526 70Q521 52 514.50 35.50Q508 19 502 0.50Q496-18 492-47Q496-40 507.50-38Q519-36 523-47Q529-61 530.50-76Q532-91 532-107Q532-123 531.50-139Q531-155 533-170Q537-205 537.50-243.50Q538-282 554-317Q558-334 557.50-353.50Q557-373 538-380Q530-382 526-379Q522-376 520.50-371Q519-366 518.50-359.50Q518-353 518-348Q516-352 514.50-357.50Q513-363 510.50-367.50Q508-372 503.50-375Q499-378 492-376Q488-369 487.50-361.50Q487-354 487.50-346Q488-338 488.50-329.50Q489-321 487-312Q483-270 471.50-229.50Q460-189 456-148Q450-110 440-72.50Q430-35 420 3Q410 41 401.50 78.50Q393 116 389 154Q391 159 390.50 165.50Q390 172 390 178Q390 184 391.50 190Q393 196 399 199Q405 199 410 195Q415 191 418.50 187.50Q422 184 425 183.50Q428 183 430 190Q430 249 421 304.50Q412 360 404 419Q396 367 387.50 316Q379 265 363 213Q347 165 339 117Q331 69 327 21Q323-3 325.50-24.50Q328-46 332-70Q334-75 332-82Q330-89 325.50-94.50Q321-100 313.50-102.50Q306-105 296-102Q286-95 281.50-86Q277-77 275-66.50Q273-56 272.50-45.50Q272-35 270-24Q270-14 264.50-17.50Q259-21 255-24Q239-35 223-24.50Q207-14 203 3Q195 27 196 51Q197 75 201.50 99Q206 123 211.50 147Q217 171 219 195Q199 230 186 269Q173 308 157 346Q147 363 143 380.50Q139 398 136.50 416Q134 434 131 452Q128 470 121 487L121 300Q125 224 123 144.50Q121 65 105-11Q105-18 103-25.50Q101-33 96.50-39Q92-45 85.50-47.50Q79-50 69-47Q67-64 68.50-80.50Q70-97 71.50-113.50Q73-130 73-146.50Q73-163 69-180Q65-190 54-186Q43-182 38-175Q27-213 25.50-249.50Q24-286 13-321Q11-326 9.50-332.50Q8-339 6-344Q4-349-0.50-352Q-5-355-13-353Q-25-342-21.50-329.50Q-18-317-18-303Q-14-272-12.50-239Q-11-206-3-175Q1-155 10.50-136.50Q20-118 13-97Q-3-94-13-84.50Q-23-75-23-61Q-25-39-28.50-12.50Q-32 14-33.50 41Q-35 68-33 93.50Q-31 119-23 140Q-21 152-7.50 147Q6 142 20.50 134.50Q35 127 45 123.50Q55 120 49 136Q64 286 49 437Q41 440 34.50 447Q28 454 28 464Q20 502 24.50 541Q29 580 49 615Q51 622 56.50 628Q62 634 69 638Q76 642 84 642.50Q92 643 100 638Q102 636 103 631.50Q104 627 105 624Q106 621 107.50 621.50Q109 622 111 629Q122 636 131.50 626Q141 616 141 606Q149 620 155.50 631Q162 642 162 656Q158 667 156 677.50Q154 688 162 702Q174 722 190 746Q206 770 229 784Q235 787 238 785Q241 783 242 778.50Q243 774 242 767.50Q241 761 239 756Q235 739 227 722Q219 705 210.50 687.50Q202 670 196.50 652Q191 634 193 615Q197 594 204 574.50Q211 555 219 535Q227 515 235.50 495.50Q244 476 250 455Q262 419 262.50 382.50Q263 346 260 309Q257 272 254 235.50Q251 199 255 163Q260 181 269 194.50Q278 208 286 227.50Q294 247 300.50 277Q307 307 308 359Q316 398 326 441Q336 484 348.50 527.50Q361 571 375 613Q389 655 404 693Q414 713 418.50 734.50Q423 756 425 777.50Q427 799 427.50 821.50Q428 844 430 866Q432 876 435 887.50Q438 899 444 908.50Q450 918 459 924Q468 930 482 930Z"  horiz-adv-x="667" vert-adv-y="1000"  />

      
      <glyph glyph-name="uni4e" unicode="&#x4e;" d="M461 795Q484 776 497 751Q510 726 521 700Q529 689 527 677.50Q525 666 521 655Q528 621 534.50 586Q541 551 542 521.50Q543 492 536.50 471.50Q530 451 511 445Q496 441 496.50 426Q497 411 503.50 391.50Q510 372 518 351Q526 330 526 315Q528 292 519.50 271.50Q511 251 500.50 230Q490 209 480.50 188Q471 167 471 145Q471 119 476 87Q481 55 486.50 22.50Q492-10 494.50-42Q497-74 491-100Q487-115 471-125.50Q455-136 436-125Q425-119 422.50-134.50Q420-150 420.50-172.50Q421-195 421.50-218Q422-241 416-250Q397-254 387-239.50Q377-225 381-210Q384-181 373-154.50Q362-128 345.50-104Q329-80 311-59Q293-38 279.50-20.50Q266-3 262 11Q258 25 271 35Q288 48 283.50 67.50Q279 87 265.50 108.50Q252 130 235 151.50Q218 173 211 190Q192 201 174.50 216.50Q157 232 144 254.50Q131 277 125.50 308Q120 339 126 380Q118 320 110 257.50Q102 195 106 135Q106 126 108.50 125.50Q111 125 114.50 128Q118 131 122.50 135.50Q127 140 131 140Q138 136 140.50 130Q143 124 143 117Q143 110 142 103Q141 96 141 90Q130 30 115-23Q100-76 96-125Q92-200 84.50-229Q77-258 68.50-259.50Q60-261 52.50-244Q45-227 41-210Q37-197 40.50-173.50Q44-150 49-124Q54-98 58.50-72.50Q63-47 61-30Q57-6 48 25Q39 56 29.50 84Q20 112 13 133Q6 154 6 160Q2 171 11 179.50Q20 188 31 180Q35 176 38 172.50Q41 169 41 180Q45 204 44.50 223Q44 242 42.50 260Q41 278 40 297Q39 316 41 340Q45 344 51 344.50Q57 345 61 345Q61 370 53.50 399Q46 428 36.50 457.50Q27 487 19.50 516Q12 545 12 570.50Q12 596 22.50 616.50Q33 637 61 650Q60 702 62 730Q64 758 69 767Q74 776 81 770Q88 764 96 750Q104 736 113 716.50Q122 697 131 680Q161 597 188.50 517Q216 437 231 350Q238 320 262.50 293Q287 266 314 239.50Q341 213 362.50 185Q384 157 386 125Q390 153 403 176Q416 199 425 224.50Q434 250 431.50 283Q429 316 401 365Q395 374 398 383.50Q401 393 408 401.50Q415 410 424 417Q433 424 441 430Q413 514 409 564Q405 614 415.50 634.50Q426 655 447 647.50Q468 640 491 610Q493 631 487.50 650Q482 669 474 687.50Q466 706 458 725Q450 744 446 765Q442 773 442.50 784Q443 795 451 795L461 795Z"  horiz-adv-x="667" vert-adv-y="1000"  />

      
      <glyph glyph-name="uni4f" unicode="&#x4f;" d="M204 463Q216 463 223.50 454Q231 445 228 421Q228 401 244.50 385.50Q261 370 281 355.50Q301 341 319.50 325.50Q338 310 341 291Q343 275 337.50 250.50Q332 226 326 203Q318 176 309 146Q321 134 323 116.50Q325 99 320.50 77Q316 55 308 31Q300 7 292-18Q281-63 259.50-83Q238-103 220-103Q209-103 204-88Q199-73 192-55Q185-37 171.50-23Q158-9 131-12Q99-13 85 0Q71 13 64 38Q57 63 53 97.50Q49 132 39 174Q34 199 20.50 226Q7 253 1.50 279Q-4 305 6 330.50Q16 356 58 378Q86 395 112 407Q138 419 159 438Q183 463 204 463M220 302Q214 302 208.50 293.50Q203 285 197.50 273.50Q192 262 186.50 250.50Q181 239 174.50 233.50Q168 228 160.50 231Q153 234 144 252Q136 265 135 254Q134 243 137 221.50Q140 200 144 175Q148 150 151 136Q154 122 153.50 102.50Q153 83 154 65.50Q155 48 161 36.50Q167 25 184 27Q223 27 234 61.50Q245 96 212 157Q206 168 208 181.50Q210 195 215.50 209Q221 223 227.50 236.50Q234 250 237.50 262Q241 274 238.50 283Q236 292 224 297Q224 302 220 302Z"  horiz-adv-x="392" vert-adv-y="1000"  />

      
      <glyph glyph-name="uni50" unicode="&#x50;" d="M46 535Q48 507 51.50 487Q55 467 61 451.50Q67 436 74.50 423Q82 410 91 395Q95 432 99 447.50Q103 463 116 467Q129 471 155.50 470Q182 469 231 475Q240 474 248 471Q264 466 276 455Q284 444 283 430Q282 416 278 404Q274 390 266 375Q281 341 300.50 307.50Q320 274 328 240.50Q336 207 324.50 174.50Q313 142 266 110Q255 95 249.50 73.50Q244 52 234.50 34.50Q225 17 206.50 9.50Q188 2 151 15L101 0L71-240Q71-272 69.50-307Q68-342 63.50-369Q59-396 50-410Q41-424 26-415L16-285L31-150Q8-133 5.50-108Q3-83 8.50-55.50Q14-28 22.50-0.50Q31 27 31 50Q8 73 1.50 115.50Q-5 158 6 215Q15 267 17.50 324Q20 381 21 427.50Q22 474 24.50 504.50Q27 535 36 535L46 535M181 335Q173 335 163.50 326.50Q154 318 146 310Q138 302 131.50 300Q125 298 119.50 296.50Q114 295 109.50 292Q105 289 101 280Q97 274 93.50 264Q90 254 88.50 242.50Q87 231 87 221Q87 211 91 205Q95 199 103.50 189.50Q112 180 121 167Q130 154 138.50 139.50Q147 125 151 110Q153 101 159.50 109.50Q166 118 173 134Q180 150 185.50 168Q191 186 191 195Q191 202 196.50 206.50Q202 211 209 215.50Q216 220 222.50 225.50Q229 231 231 240Q231 263 221.50 282Q212 301 201 320Q197 328 193 331.50Q189 335 181 335Z"  horiz-adv-x="419" vert-adv-y="1000"  />

      
      <glyph glyph-name="uni51" unicode="&#x51;" d="M316 635Q321 635 321 630Q338 630 344.50 618.50Q351 607 361 589Q371 571 392.50 550Q414 529 461 510Q472 481 473 457.50Q474 434 469.50 412Q465 390 456 368.50Q447 347 439 323Q431 299 425.50 270Q420 241 421 205Q425 179 416 154Q407 129 396 110Q415 95 430 86.50Q445 78 441 70Q435 55 442 42.50Q449 30 463 19Q477 8 494.50-2.50Q512-13 527-24Q542-35 551-47.50Q560-60 556-75Q526-71 501.50-55.50Q477-40 451-25Q402 1 383 23Q364 45 356 60Q326 34 296 12Q266-10 251-25Q230-48 212-61Q194-74 181-75Q168-76 161-63Q154-50 156-20Q156-1 145.50 11.50Q135 24 119 34Q103 44 84.50 52Q66 60 49.50 69.50Q33 79 20.50 90.50Q8 102 6 120Q4 143 11 179.50Q18 216 27 252Q38 293 51 340Q34 351 31.50 375.50Q29 400 34 432Q39 464 48.50 502.50Q58 541 66 580Q72 602 79.50 610.50Q87 619 95 618Q103 617 112 609.50Q121 602 130 594Q139 586 148 580Q157 574 166 575Q179 579 186 582Q193 585 203.50 590.50Q214 596 232 604Q250 612 286 625Q297 629 304.50 630Q312 631 316 635M271 535Q252 535 230.50 522Q209 509 188.50 492.50Q168 476 150 459Q132 442 121 435Q119 422 119.50 395.50Q120 369 121 340.50Q122 312 122.50 286.50Q123 261 121 250Q117 216 129.50 185.50Q142 155 161 125Q176 110 191 110Q202 110 216.50 120Q231 130 246 145L256 155Q248 162 233.50 174.50Q219 187 204.50 201Q190 215 179.50 229.50Q169 244 171 255Q177 272 175 282.50Q173 293 170 300Q167 307 167 310Q167 313 176 315Q187 306 198 297Q207 289 217.50 281Q228 273 236 265Q247 250 256.50 231.50Q266 213 281 205Q303 197 311 190Q317 199 326 217Q335 235 344.50 255Q354 275 361.50 293Q369 311 371 320Q352 342 342 374.50Q332 407 325 437.50Q318 468 311 492.50Q304 517 291 525Q287 529 283 532Q279 535 271 535Z"  horiz-adv-x="647" vert-adv-y="1000"  />

      
      <glyph glyph-name="uni52" unicode="&#x52;" d="M46 810Q50 782 53 753Q56 724 59.50 697Q63 670 68 647.50Q73 625 81 610Q89 644 106.50 685.50Q124 727 166 780Q173 774 177.50 766Q182 758 188 752Q194 746 204.50 744Q215 742 236 750Q245 749 253 746Q269 741 281 730Q286 719 285.50 705Q285 691 282 679Q278 665 271 650Q286 616 304.50 582.50Q323 549 330.50 515.50Q338 482 327 449.50Q316 417 271 385L156 290Q177 266 196.50 241.50Q216 217 228.50 193Q241 169 242 145.50Q243 122 226 100Q242 80 255 62Q266 46 276.50 28Q287 10 291-5Q295-20 293-40Q291-60 288-82.50Q285-105 282-129Q279-153 281-175Q283-198 288.50-217.50Q294-237 299.50-255Q305-273 309-289Q313-305 311-320Q307-337 300-343.50Q293-350 285-352Q276-354 266-350L226-75Q226-77 220-67.50Q214-58 204.50-41.50Q195-25 183.50-4Q172 17 161 40Q153 59 145.50 76.50Q138 94 132 108.50Q126 123 122.50 133.50Q119 144 121 150Q123 180 120.50 203Q118 226 115 242Q111 260 106 275L76 35Q76 3 74.50-32Q73-67 68.50-94Q64-121 55-135Q46-149 31-140L21-10L36 125Q13 142 10.50 167Q8 192 13 219.50Q18 247 25.50 274.50Q33 302 31 325Q12 348 6 390.50Q0 433 11 490Q20 542 22.50 599Q25 656 26 702.50Q27 749 29.50 779.50Q32 810 41 810L46 810M186 610Q178 610 168.50 601.50Q159 593 151 585Q143 577 140.50 569Q138 561 136.50 552Q135 543 133.50 533.50Q132 524 126 515Q124 509 117.50 505Q111 501 105 497.50Q99 494 95.50 490Q92 486 96 480Q100 474 108.50 464.50Q117 455 126 442Q135 429 143.50 414.50Q152 400 156 385Q158 376 164.50 384.50Q171 393 178 409Q185 425 190.50 443Q196 461 196 470Q196 477 192 484.50Q188 492 184 499.50Q180 507 177 514.50Q174 522 176 530Q178 541 185 549Q192 557 198.50 564Q205 571 208.50 578.50Q212 586 206 595Q202 603 198 606.50Q194 610 186 610Z"  horiz-adv-x="430" vert-adv-y="1000"  />

      
      <glyph glyph-name="uni53" unicode="&#x53;" d="M371 415Q386 415 393.50 407.50Q401 400 416 400Q431 398 434 391.50Q437 385 432.50 378Q428 371 417.50 365.50Q407 360 396 360Q387 352 377 347Q369 342 360 338.50Q351 335 346 335Q316 342 286 335Q277 335 266 332Q255 329 245.50 325Q236 321 228 318Q220 315 216 315Q208 319 195 321Q182 323 171 315Q163 309 161 306Q159 303 158.50 300Q158 297 155.50 294Q153 291 146 285Q142 283 139 284.50Q136 286 133.50 287.50Q131 289 128 290.50Q125 292 121 290Q113 282 109 273Q105 264 101 260Q99 258 102.50 250.50Q106 243 112.50 234Q119 225 128 217Q137 209 146 205Q176 209 202 215Q228 221 251 210Q255 206 271.50 205Q288 204 296 200Q311 192 320.50 186.50Q330 181 341 170Q352 166 359.50 156Q367 146 371 135Q379 127 377 114Q375 101 371 90Q367 82 358.50 76.50Q350 71 346 60Q342 52 346 42.50Q350 33 346 25Q338 2 321-15Q304-32 281-40Q275-42 269-40.50Q263-39 256-37.50Q249-36 243-34.50Q237-33 231-35Q223-39 219-45.50Q215-52 211-59Q207-66 202.50-72Q198-78 191-80Q185-82 179.50-80Q174-78 168.50-75Q163-72 157.50-70Q152-68 146-70Q104-81 67-88Q30-95 11-80Q9-78 7-81.50Q5-85 3-90Q1-95-2-98.50Q-5-102-9-100Q-13-100-11-92Q-9-84-9-80Q-7-74-3.50-65Q0-56 4-46.50Q8-37 12.50-29.50Q17-22 21-20Q30-18 39.50-22.50Q49-27 58-32Q67-37 75-40.50Q83-44 91-40Q95-36 96-30.50Q97-25 101-25Q107-19 113.50-17.50Q120-16 127-16Q134-16 141-16.50Q148-17 156-15Q164-11 171-7Q178-3 186 5Q193 9 196.50 20Q200 31 211 35Q219 39 226 39.50Q233 40 241 40Q258 44 271.50 47Q285 50 292 57Q299 64 298 77.50Q297 91 286 115Q282 124 277.50 128.50Q273 133 267 135Q261 137 253 137.50Q245 138 236 140Q221 144 208.50 144Q196 144 181 140Q158 134 139.50 135Q121 136 102 144Q83 152 62.50 167Q42 182 16 205Q12 209 19.50 221.50Q27 234 31 245Q39 264 47.50 284Q56 304 71 315Q79 323 91 322.50Q103 322 111 330Q122 338 128.50 352Q135 366 146 370Q154 374 161 374.50Q168 375 176 375Q184 375 191 372.50Q198 370 206 370Q217 374 224 385Q231 396 246 400Q255 404 265.50 402Q276 400 286 398Q296 396 306.50 395Q317 394 326 400Q356 422 371 415Z"  horiz-adv-x="563" vert-adv-y="1000"  />

      
      <glyph glyph-name="uni54" unicode="&#x54;" d="M261 955Q278 938 274 913Q270 888 259 860Q248 832 237.50 803Q227 774 231 750Q233 739 237 734.50Q241 730 246 727.50Q251 725 255 720.50Q259 716 261 705Q263 694 258 679.50Q253 665 247.50 649Q242 633 238.50 616.50Q235 600 241 585Q248 564 243 539.50Q238 515 229.50 493Q221 471 214 455Q207 439 211 435Q220 427 231 429.50Q242 432 251.50 437Q261 442 269 447Q277 452 281 450Q286 444 287.50 437Q289 430 287 424Q285 417 281 410Q277 399 285.50 401.50Q294 404 309.50 407Q325 410 345 408Q365 406 386 385Q405 366 420.50 357.50Q436 349 442.50 342.50Q449 336 443.50 327.50Q438 319 416 300Q420 268 412 257Q404 246 389.50 249.50Q375 253 356.50 267Q338 281 321 300Q307 277 288.50 280Q270 283 253 295Q233 309 211 335Q216 287 215 247Q214 212 208 180.50Q202 149 186 140Q186 121 189.50 103.50Q193 86 196 70.50Q199 55 198.50 42Q198 29 191 20Q177-4 172-20Q167-36 166-49Q165-62 165.50-75Q166-88 162.50-104.50Q159-121 150-143.50Q141-166 121-200Q110-184 106-175.50Q102-167 102.50-161.50Q103-156 106-150.50Q109-145 113-135Q117-125 119.50-107.50Q122-90 121-60Q121-43 123-24.50Q125-6 126.50 12Q128 30 127.50 47.50Q127 65 121 80Q115 95 109.50 108.50Q104 122 103.50 136Q103 150 108.50 165.50Q114 181 131 200Q140 211 143.50 224.50Q147 238 147 254.50Q147 271 145 291Q143 311 141 335Q139 341 129 342Q119 343 107 344.50Q95 346 83.50 350Q72 354 66 365Q64 372 53.50 376Q43 380 32 382.50Q21 385 12.50 388.50Q4 392 6 400Q6 411 13.50 425Q21 439 36 435Q49 429 55.50 430Q62 431 66 435.50Q70 440 72.50 445.50Q75 451 81 455Q92 459 108.50 461.50Q125 464 136 475Q143 484 140 483Q137 482 132.50 480.50Q128 479 126.50 482.50Q125 486 136 505Q140 524 142.50 546Q145 568 148.50 593.50Q152 619 158.50 647Q165 675 176 705Q176 756 189 801Q202 846 218 881Q236 921 261 955Z"  horiz-adv-x="508" vert-adv-y="1000"  />

      
      <glyph glyph-name="uni55" unicode="&#x55;" d="M391 565Q399 565 405.50 562Q412 559 416 555Q425 542 426.50 528Q428 514 425 499.50Q422 485 417.50 470Q413 455 411 440Q407 427 408.50 414.50Q410 402 412 390.50Q414 379 413.50 367.50Q413 356 406 345Q402 334 395.50 325Q389 316 382.50 307.50Q376 299 371 290Q366 281 366 270Q370 253 367.50 248Q365 243 361.50 240.50Q358 238 356.50 234Q355 230 361 215Q361 207 370 198.50Q379 190 389 181.50Q399 173 405.50 166Q412 159 406 155Q383 141 374.50 134Q366 127 364 122.50Q362 118 362.50 112.50Q363 107 358 97.50Q353 88 339.50 71Q326 54 296 25Q273 45 260.50 47Q248 49 241.50 41Q235 33 233.50 18Q232 3 230.50-12Q229-27 227-38Q225-49 218-49Q211-49 197.50-35Q184-21 161 15Q148 22 135 19Q122 16 108.50 10.50Q95 5 82 3Q69 1 56 10Q43 27 39 46Q35 65 36.50 85.50Q38 106 42.50 126Q47 146 51 165Q36 157 23 166Q10 175 6 190Q2 220 6.50 252Q11 284 26 310Q35 319 45 346.50Q55 374 64.50 405.50Q74 437 82 465.50Q90 494 96 505Q102 518 104.50 515.50Q107 513 110 506.50Q113 500 117.50 495.50Q122 491 131 500L131 495Q125 467 116.50 440.50Q108 414 99.50 387Q91 360 84.50 332.50Q78 305 76 275Q76 262 81 263.50Q86 265 93 274.50Q100 284 107.50 299.50Q115 315 121 330Q137 332 138.50 317.50Q140 303 135 280Q130 257 123 229Q116 201 115.50 176.50Q115 152 125.50 136Q136 120 166 120Q183 105 204 108Q225 111 245.50 126.50Q266 142 282 167Q298 192 306 220Q295 258 302.50 295Q310 332 321 370Q321 385 333.50 398Q346 411 361 415Q376 426 378 442.50Q380 459 376 477Q372 495 366.50 514Q361 533 361 550Q357 558 368.50 561.50Q380 565 391 565Z"  horiz-adv-x="503" vert-adv-y="1000"  />

      
      <glyph glyph-name="uni56" unicode="&#x56;" d="M266 640Q270 640 276.50 632Q283 624 291 605Q298 558 300 523.50Q302 489 301 459.50Q300 430 298 402Q296 374 296 340Q285 332 277 311Q269 290 264.50 262Q260 234 258 204Q256 174 256 150Q260 126 255.50 111.50Q251 97 242.50 88Q234 79 223 74Q212 69 201 65Q190 61 181.50 55.50Q173 50 171 40Q173 2 172.50-23Q172-48 170-64.50Q168-81 165.50-90Q163-99 161-105Q152-94 144.50-94Q137-94 131.50-90.50Q126-87 123.50-73Q121-59 121-20Q105-24 93-15.50Q81-7 73 8Q65 23 61 43Q57 63 55.50 82Q54 101 55.50 116.50Q57 132 61 140L46 265Q42 301 29.50 340Q17 379 8.50 416.50Q0 454 2.50 487.50Q5 521 31 545Q16 587 18.50 604.50Q21 622 36 630L66 530L86 440L126 100Q126 117 134 123.50Q142 130 153 135Q164 140 174.50 146.50Q185 153 191 170Q198 191 200 222Q202 253 201 285.50Q200 318 198 346.50Q196 375 196 390Q205 409 213.50 402.50Q222 396 228.50 385Q235 374 239.50 367.50Q244 361 246 380Q246 387 243 396.50Q240 406 237 421Q234 436 233 458.50Q232 481 236 515Q240 568 247.50 604Q255 640 266 640Z"  horiz-adv-x="382" vert-adv-y="1000"  />

      
      <glyph glyph-name="uni57" unicode="&#x57;" d="M441 930Q460 930 467.50 915Q475 900 471 885Q467 872 464.50 847Q462 822 460 794.50Q458 767 457 741Q456 715 456 700Q452 674 451.50 644.50Q451 615 451 585Q451 579 450 571.50Q449 564 445.50 557.50Q442 551 436 547Q430 543 421 545Q429 515 440 485Q451 455 451 425Q453 417 451.50 409.50Q450 402 445.50 397Q441 392 434.50 390.50Q428 389 421 395Q417 353 419 310Q421 267 421 225Q421 219 421.50 212Q422 205 421.50 198.50Q421 192 419 187Q417 182 411 180Q411 193 410 187.50Q409 182 408.50 173.50Q408 165 407 161.50Q406 158 406 175Q411 175 411 180L411 175Q407 149 407 120.50Q407 92 396 70Q390 42 393 14Q396-14 401.50-42.50Q407-71 411-99Q415-127 411-155Q396-155 385-148Q374-141 366-130Q358-109 356-88Q354-67 353.50-45Q353-23 350.50-2Q348 19 341 40Q331 67 321 84Q311 101 301.50 112.50Q292 124 283.50 132.50Q275 141 267 152.50Q259 164 252.50 180.50Q246 197 241 225Q245 197 246.50 164Q248 131 247 98Q246 65 242 33Q238 1 231-25Q223-44 219.50-69Q216-94 215.50-120Q215-146 217.50-171Q220-196 226-215Q228-219 228.50-225.50Q229-232 227.50-238.50Q226-245 222-250Q218-255 211-255Q188-240 175-216.50Q162-193 151-170Q145-163 146-155.50Q147-148 148.50-140.50Q150-133 151-125.50Q152-118 146-110Q138-114 131.50-116.50Q125-119 121-115Q118-119 118-110.50Q118-102 119-87.50Q120-73 121-54.50Q122-36 123-19Q124-2 123.50 10Q123 22 121 25Q112 36 102 44.50Q92 53 84 61.50Q76 70 71 80Q66 90 66 105Q66 114 65.50 136.50Q65 159 66 183.50Q67 208 70 228.50Q73 249 81 255Q85 287 83.50 301.50Q82 316 78.50 327.50Q75 339 70 353.50Q65 368 61 400Q55 398 49 393.50Q43 389 36 385Q29 381 23 380Q17 379 11 385Q-4 415-3.50 448Q-3 481 1 515Q5 526 5 539Q5 552 6 564Q7 576 11 586.50Q15 597 26 605Q34 609 37 615.50Q40 622 36 630Q17 675 16 720Q15 765 11 810Q9 817 11.50 823.50Q14 830 18 833Q22 836 27 836Q32 836 36 830Q45 813 49.50 795.50Q54 778 56.50 759.50Q59 741 60.50 722.50Q62 704 66 685Q83 693 91 685Q97 672 97.50 658Q98 644 96.50 630Q95 616 93 602Q91 588 91 575Q113 567 121 545Q136 470 136 392Q136 314 136 235Q136 231 135.50 222.50Q135 214 134.50 206Q134 198 134 193.50Q134 189 136 195Q151 233 163.50 272.50Q176 312 191 350Q191 369 187.50 388.50Q184 408 180.50 428Q177 448 176 468.50Q175 489 181 510Q181 519 185.50 528.50Q190 538 197 545Q204 552 213 554Q222 556 231 550Q235 561 237.50 580Q240 599 251 610Q257 617 265 618Q273 619 280.50 614.50Q288 610 293 602Q298 594 296 585Q288 543 292.50 502.50Q297 462 301 420Q312 367 325 317Q338 267 346 210Q350 244 353 277.50Q356 311 356 345Q354 342 355.50 350.50Q357 359 361.50 373.50Q366 388 372 405.50Q378 423 383.50 439.50Q389 456 392.50 468.50Q396 481 396 485Q396 517 385.50 533Q375 549 363 562.50Q351 576 343 592Q335 608 341 640Q367 642 379 670.50Q391 699 395.50 737.50Q400 776 399.50 816Q399 856 401 880Q401 891 406.50 888Q412 885 431 885Q433 881 433.50 887.50Q434 894 434.50 903.50Q435 913 436 921.50Q437 930 441 930Z"  horiz-adv-x="538" vert-adv-y="1000"  />

      
      <glyph glyph-name="uni58" unicode="&#x58;" d="M371 655Q385 630 385.50 618Q386 606 379 600.50Q372 595 361 594.50Q350 594 339.50 591.50Q329 589 323 582.50Q317 576 321 560Q323 549 319.50 541.50Q316 534 311 528Q306 522 302.50 515.50Q299 509 301 500Q303 489 305 483.50Q307 478 310 472.50Q313 467 316.50 458Q320 449 326 430Q335 404 327 385.50Q319 367 307 353.50Q295 340 285 329.50Q275 319 281 310Q287 296 290.50 290.50Q294 285 297.50 282.50Q301 280 306 279Q311 278 319.50 274Q328 270 341.50 260Q355 250 376 230Q397 209 398.50 200.50Q400 192 394 189Q388 186 379.50 186.50Q371 187 371 185Q371 168 383 155Q395 142 412 130.50Q429 119 447 107Q465 95 476 80Q500 52 518.50 36Q537 20 544.50 10.50Q552 1 546-6.50Q540-14 516-25Q518-51 511-56Q504-61 490.50-49Q477-37 457.50-10Q438 17 416 55Q397 59 373 88Q349 117 327 151Q301 191 276 240Q280 200 278 173Q277 161 274.50 151.50Q272 142 267 136.50Q262 131 254.50 131Q247 131 236 140Q234 129 237.50 112Q241 95 244 80Q247 65 247.50 55.50Q248 46 241 50Q220 54 210.50 43Q201 32 195.50 13.50Q190-5 186.50-29Q183-53 176-75Q172-84 169-96Q166-108 160.50-118Q155-128 147-133.50Q139-139 126-135Q115-105 113.50-85Q112-65 116-50Q122-35 131-22Q140-9 149 5Q158 19 164.50 35.50Q171 52 171 75Q171 88 174 98.50Q177 109 178.50 119.50Q180 130 179 143Q178 156 171 175Q165 192 159 208.50Q153 225 152.50 235.50Q152 246 160 248.50Q168 251 191 240Q206 232 207.50 240Q209 248 204.50 264.50Q200 281 192.50 302.50Q185 324 181 345Q181 351 169 366Q157 381 141.50 400.50Q126 420 111.50 440Q97 460 91 475Q87 484 73.50 502Q60 520 45.50 538Q31 556 20 571Q9 586 11 590Q11 598 21.50 595.50Q32 593 51 570Q68 546 76.50 536.50Q85 527 90.50 524Q96 521 99.50 521Q103 521 111 515Q118 507 139 486.50Q160 466 183 443.50Q206 421 225.50 402.50Q245 384 251 380Q257 377 257 383.50Q257 390 254.50 400Q252 410 248 422.50Q244 435 242.50 445Q241 455 243.50 461Q246 467 256 465Q262 472 261.50 486.50Q261 501 262 516Q263 531 268.50 543.50Q274 556 291 560Q293 595 306 614.50Q319 634 333 643Q350 654 371 655Z"  horiz-adv-x="623" vert-adv-y="1000"  />

      
      <glyph glyph-name="uni59" unicode="&#x59;" d="M39 642Q68 594 91 546.50Q114 499 143 452Q159 443 167 428Q175 413 179.50 396.50Q184 380 187 363Q190 346 196 332Q212 317 223 300Q234 283 237 260Q238 254 242 258.50Q246 263 250.50 271Q255 279 259.50 287.50Q264 296 267 299Q282 304 294.50 318Q307 332 305 351Q322 375 344 400.50Q366 426 387 451Q390 434 386.50 419Q383 404 376.50 390Q370 376 362 361.50Q354 347 347 331Q341 310 334 287.50Q327 265 312 249Q311 238 305 226.50Q299 215 300 199Q298 185 289.50 172.50Q281 160 272 148Q263 136 255 123Q247 110 245 96Q243 76 236.50 57Q230 38 217 27Q206 12 207-1Q208-14 204-39L154-255Q150-269 137.50-288.50Q125-308 109-328Q93-348 76-365.50Q59-383 45.50-392.50Q32-402 25-401.50Q18-401 23-384Q29-363 37.50-342.50Q46-322 54.50-302Q63-282 70.50-261Q78-240 81-218Q84-207 89-200Q94-193 98.50-187Q103-181 104.50-175Q106-169 102-160Q99-149 104.50-139Q110-129 118-119Q126-109 133.50-99Q141-89 142-77Q142-69 136-63.50Q130-58 125-52Q120-46 118.50-38.50Q117-31 126-19Q130-12 135-6Q140 0 142 6.50Q144 13 141 20.50Q138 28 126 38Q117 43 120.50 50.50Q124 58 133.50 66.50Q143 75 154.50 84Q166 93 171 102Q177 115 176 131Q175 147 171 163.50Q167 180 163.50 196.50Q160 213 162 229Q164 235 160.50 234.50Q157 234 152 232Q147 230 141.50 230Q136 230 134 237Q136 257 130 280Q124 303 112 319Q93 345 81 373Q69 401 61 430Q54 456 47.50 481.50Q41 507 55 527Q53 550 44 576Q35 602 28 628Q30 633 29 641Q28 649 32 650L39 642Z"  horiz-adv-x="483" vert-adv-y="1000"  />

      
      <glyph glyph-name="uni5a" unicode="&#x5a;" d="M48 800Q63 800 84 789.50Q105 779 129 764Q153 749 179 733.50Q205 718 229.50 708.50Q254 699 276.50 698.50Q299 698 316 713Q332 728 354 729Q376 730 398 721.50Q420 713 437.50 699.50Q455 686 463 673Q471 681 475 677.50Q479 674 477 663Q478 655 475.50 652Q473 649 469.50 648Q466 647 462 646.50Q458 646 455 642Q440 619 433 590.50Q426 562 421.50 532.50Q417 503 411 474.50Q405 446 393 423Q391 417 386.50 419Q382 421 377 424Q372 427 366.50 429.50Q361 432 357 428Q344 417 339 393.50Q334 370 327 347Q323 333 320.50 317.50Q318 302 314.50 287Q311 272 305 258Q299 244 289 235Q272 227 256.50 212.50Q241 198 232 179Q227 169 223.50 157.50Q220 146 215.50 135.50Q211 125 205 117.50Q199 110 189 108Q183 110 178 106.50Q173 103 171 97.50Q169 92 170.50 85Q172 78 177 72Q187 61 203 58.50Q219 56 235 52Q253 48 272 43Q291 38 310.50 34.50Q330 31 349 30.50Q368 30 387 36Q396 40 398 48Q400 56 399 65.50Q398 75 396 85Q394 95 395 103Q407 103 420 92Q433 81 446 77Q458 66 470.50 60.50Q483 55 495.50 51.50Q508 48 520.50 45Q533 42 546 36Q553 34 555.50 28Q558 22 556.50 15Q555 8 551 1.50Q547-5 543-9Q534-9 524.50-3.50Q515 2 505.50 7.50Q496 13 485.50 16.50Q475 20 465 16Q453 4 438.50 1Q424-2 409-3Q394-4 379-5.50Q364-7 350-15Q325-34 293.50-29.50Q262-25 230-9Q215 2 199 6.50Q183 11 166.50 10.50Q150 10 134 6Q118 2 102-4Q99-2 95-4Q91-6 87.50-8.50Q84-11 80.50-12Q77-13 75-9Q73 10 60.50 13Q48 16 37 16Q44 31 58.50 35.50Q73 40 84 52Q94 77 104 103.50Q114 130 125.50 156Q137 182 151 205Q165 228 184 245Q191 252 199 256.50Q207 261 215.50 265Q224 269 232 273.50Q240 278 247 286Q254 314 258 343.50Q262 373 266 402.50Q270 432 275.50 460Q281 488 292 515Q302 557 328.50 581.50Q355 606 386 622Q364 630 345.50 629Q327 628 305 632Q279 647 251.50 652.50Q224 658 202 642Q185 648 168.50 647.50Q152 647 136.50 644Q121 641 106 636Q91 631 76 627Q72 634 73.50 643.50Q75 653 77.50 663Q80 673 80.50 683.50Q81 694 75 703Q68 711 59.50 713.50Q51 716 41.50 715Q32 714 23.50 710.50Q15 707 8 703Q8 726 13.50 750.50Q19 775 29 795Q32 799 37.50 799.50Q43 800 48 800Z"  horiz-adv-x="648" vert-adv-y="1000"  />

      
      <glyph glyph-name="uni62" unicode="&#x62;" d="M151 925Q166 925 176.50 916.50Q187 908 191 900Q198 883 190.50 867.50Q183 852 170.50 836.50Q158 821 145.50 805Q133 789 131 770Q129 757 133 743.50Q137 730 142.50 716.50Q148 703 153.50 689Q159 675 161 660Q163 622 157.50 582Q152 542 143.50 503.50Q135 465 126 430.50Q117 396 111 370Q109 359 111 351Q113 343 115.50 337Q118 331 119 326Q120 321 116 315Q110 296 108.50 276Q107 256 108.50 240.50Q110 225 116 217Q122 209 131 215Q157 232 188.50 245Q220 258 248 267Q276 276 295 280.50Q314 285 316 285Q322 283 315 287Q308 291 298 297.50Q288 304 280 311.50Q272 319 276 325Q282 340 301.50 343.50Q321 347 344.50 343.50Q368 340 390 330.50Q412 321 421 310Q427 304 422 297.50Q417 291 410 283.50Q403 276 397.50 267.50Q392 259 396 250Q415 203 416 158.50Q417 114 397.50 80Q378 46 335.50 27.50Q293 9 226 15Q202 17 179 7.50Q156-2 134.50-5.50Q113-9 92.50 3Q72 15 51 60Q47 69 37.50 77Q28 85 18.50 93.50Q9 102 1 112.50Q-7 123-6.50 136.50Q-6 150 4.50 168Q15 186 41 210Q41 233 43 254Q45 272 47.50 291.50Q50 311 56 325Q63 357 70.50 400Q78 443 83 488.50Q88 534 90.50 577.50Q93 621 91 655Q91 670 86.50 680Q82 690 76.50 697Q71 704 67.50 709Q64 714 66 720Q75 748 81.50 775.50Q88 803 95 828.50Q102 854 111.50 876Q121 898 136 915Q140 919 143.50 922Q147 925 151 925M336 250Q332 250 325.50 244Q319 238 312.50 230Q306 222 301 212Q296 202 296 195Q296 187 298 179.50Q300 172 302 166Q304 160 304.50 156.50Q305 153 301 155Q293 157 289 164Q285 171 281 179Q277 187 272.50 193.50Q268 200 261 200Q247 204 230.50 195.50Q214 187 198 176Q180 163 161 145Q150 139 140.50 130Q131 121 128.50 110Q126 99 131.50 86Q137 73 156 60Q165 54 180.50 54.50Q196 55 213 58.50Q230 62 248 68Q266 74 281 80Q292 84 308 87Q324 90 338.50 95Q353 100 361.50 107Q370 114 366 125Q362 132 357 147.50Q352 163 348 180.50Q344 198 341.50 214.50Q339 231 341 240Q341 250 336 250Z"  horiz-adv-x="490" vert-adv-y="1000"  />

      
      <glyph glyph-name="uni63" unicode="&#x63;" d="M16 175Q10 186 14 201.50Q18 217 27.50 236Q37 255 48.50 277Q60 299 69.50 322.50Q79 346 83 370.50Q87 395 81 420Q72 454 74 486.50Q76 519 88.50 546Q101 573 122 592.50Q143 612 171 620Q173 646 183 667.50Q193 689 207 704Q221 719 237 727Q253 735 266 735Q274 735 282.50 728Q291 721 291 710Q317 708 340 703Q360 698 377.50 690.50Q395 683 401 670Q408 644 394.50 634Q381 624 357.50 620Q334 616 307 613.50Q280 611 261 600Q253 598 251.50 591.50Q250 585 250 576Q250 567 250 557Q250 547 246 540Q241 519 229 501.50Q217 484 203.50 468Q190 452 178.50 436Q167 420 162 401.50Q157 383 161.50 361Q166 339 186 310Q165 265 154 232.50Q143 200 139.50 178.50Q136 157 138 145.50Q140 134 146 130Q159 121 167 125.50Q175 130 183 140Q191 150 201.50 162Q212 174 231 180L281 190Q290 191 294 183Q298 175 300.50 165Q303 155 307 145Q311 135 320 133Q329 131 344.50 140Q360 149 386 175Q393 184 396.50 166.50Q400 149 394 123.50Q388 98 370 75Q352 52 316 50Q301 48 292.50 35.50Q284 23 275 13.50Q266 4 253 5Q240 6 216 30Q210 36 204.50 25.50Q199 15 194.50-5Q190-25 185-49Q180-73 174-93.50Q168-114 161.50-126.50Q155-139 146-135Q140-133 138-124Q136-115 134-102Q132-89 127-75Q122-61 111-50Q94-31 91.50-10.50Q89 10 91.50 27Q94 44 96 56Q98 68 91 70Q81 72 69 70Q57 68 47.50 68Q38 68 32.50 72.50Q27 77 29.50 93.50Q32 110 45 141Q58 172 86 225Q92 232 83.50 222.50Q75 213 62 200Q49 187 35.50 177Q22 167 16 175Z"  horiz-adv-x="502" vert-adv-y="1000"  />

      
      <glyph glyph-name="uni30" unicode="&#x30;" d="M193 728Q206 728 221 719.50Q236 711 254 698.50Q272 686 293 671Q314 656 338 643Q353 636 371.50 634.50Q390 633 408.50 630.50Q427 628 444 620Q461 612 473 590.50Q485 569 491 530.50Q497 492 493 428Q489 368 484 309Q479 250 483 193Q483 155 480 126.50Q477 98 470 82.50Q463 67 451.50 67Q440 67 423 88Q413 101 400 97Q387 93 372.50 80.50Q358 68 342.50 51.50Q327 35 312 22Q297 9 283 3.50Q269-2 258 8Q250 12 242 22.50Q234 33 225.50 47Q217 61 208.50 77.50Q200 94 193 110Q175 148 158 193Q141 182 125.50 194.50Q110 207 95 233Q80 259 65 294Q50 329 33 363Q18 395 10 426Q2 457 0 485.50Q-2 514 0 537.50Q2 561 8 578Q13 590 21.50 591Q30 592 40.50 588.50Q51 585 63 581Q75 577 87 581Q99 585 111 599.50Q123 614 133 648Q148 693 161 710.50Q174 728 193 728M203 578Q184 584 174 572.50Q164 561 158 543Q152 525 149.50 506Q147 487 143 478Q134 461 128.50 440.50Q123 420 123.50 403Q124 386 131 376.50Q138 367 153 373Q190 391 210 393Q230 395 239.50 386.50Q249 378 249.50 360Q250 342 247.50 320Q245 298 241.50 273Q238 248 239.50 226Q241 204 249 185.50Q257 167 278 158Q265 150 271.50 159.50Q278 169 293.50 183.50Q309 198 328 212Q347 226 358 228Q371 232 382 231Q393 230 399 233.50Q405 237 405 248.50Q405 260 398 288Q390 316 395.50 337Q401 358 406 378.50Q411 399 410 421Q409 443 388 473Q375 492 373 497Q371 502 366 505.50Q361 509 345 518Q329 527 288 553Q265 566 250 571.50Q235 577 225 578.50Q215 580 210 579Q205 578 203 578Z"  horiz-adv-x="568" vert-adv-y="1000"  />

      
      <glyph glyph-name="uni31" unicode="&#x31;" d="M58-42L18 108Q19 127 20 145Q21 161 20.50 177.50Q20 194 18 208Q12 234 14.50 268.50Q17 303 22 334Q28 370 38 408Q18 445 11.50 465.50Q5 486 6.50 495.50Q8 505 16 506.50Q24 508 33 507.50Q42 507 49.50 508Q57 509 58 518Q62 552 59.50 580.50Q57 609 38 628Q10 660 5.50 686.50Q1 713 11.50 731.50Q22 750 42 760Q62 770 83 768Q96 768 110 756Q124 744 133 722Q142 700 144.50 668.50Q147 637 138 598Q134 583 136 575Q138 567 142.50 561Q147 555 151.50 548Q156 541 158 528Q160 519 158 503.50Q156 488 152.50 472Q149 456 146 442.50Q143 429 143 423L193 498Q200 494 198 474.50Q196 455 186.50 424.50Q177 394 162 355Q147 316 128 273Q152 247 156 227.50Q160 208 152.50 193Q145 178 130.50 166Q116 154 103 143Q87 122 81 105Q76 91 79.50 79.50Q83 68 108 68Q121 67 129.50 57.50Q138 48 143.50 33Q149 18 151.50-1Q154-20 154-39Q155-85 148-142Q140-140 135-151.50Q130-163 125-178.50Q120-194 115-208.50Q110-223 103-226Q96-229 86.50-215.50Q77-202 63-162L58-42Z"  horiz-adv-x="284" vert-adv-y="1000"  />

      
      <glyph glyph-name="uni32" unicode="&#x32;" d="M183 43Q159 2 144-7Q129-16 118-11.50Q107-7 96 0Q85 7 68-2Q25 5 8.50 23.50Q-8 42-5 61Q-2 80 18 95.50Q38 111 68 113Q81 113 95 120Q109 127 123.50 130.50Q138 134 153 129.50Q168 125 183 103Q185 99 187 104.50Q189 110 192.50 120Q196 130 200.50 142Q205 154 213 163Q219 169 227 170.50Q235 172 241.50 174Q248 176 251 180Q254 184 248 193Q237 214 240 226Q243 238 252 245.50Q261 253 271 257.50Q281 262 283 268Q272 288 263.50 313.50Q255 339 250.50 362.50Q246 386 245.50 405Q245 424 250.50 430.50Q256 437 267.50 428Q279 419 298 388Q317 432 322 456.50Q327 481 323 493.50Q319 506 308.50 510.50Q298 515 286.50 519.50Q275 524 264 531.50Q253 539 248 558Q246 564 230.50 566Q215 568 196 568Q177 568 158.50 566.50Q140 565 133 563Q124 561 117 552.50Q110 544 101.50 535.50Q93 527 81 522Q69 517 48 523Q31 527 18 522.50Q5 518-2.50 515.50Q-10 513-11.50 516Q-13 519-7 538Q-3 557 13.50 578Q30 599 49 617Q71 638 98 658Q104 682 123.50 697Q143 712 164 712Q185 712 201.50 694.50Q218 677 218 638Q237 645 242.50 646Q248 647 248 643.50Q248 640 246 633.50Q244 627 248 621Q252 615 265 609.50Q278 604 308 603Q319 603 323 591.50Q327 580 333 565Q339 550 350.50 535Q362 520 388 513Q404 509 410.50 491.50Q417 474 416.50 449Q416 424 410.50 395.50Q405 367 398 340.50Q391 314 384 293Q377 272 373 263Q369 252 359.50 237.50Q350 223 340.50 209.50Q331 196 325 185Q319 174 323 168Q317 135 315.50 120Q314 105 315.50 101Q317 97 319 100Q321 103 320.50 106.50Q320 110 316.50 111Q313 112 303 103Q303 99 314.50 91.50Q326 84 343.50 78Q361 72 381 72Q401 72 418 83Q450 105 465.50 105.50Q481 106 486.50 96.50Q492 87 491 74.50Q490 62 488 58Q493 53 487 43.50Q481 34 467.50 24.50Q454 15 434.50 7.50Q415 0 393-2Q371-4 347.50 2.50Q324 9 303 28Q299 12 291 10Q283 8 273 14Q263 20 250.50 30Q238 40 226 47Q214 54 203 54.50Q192 55 183 43Z"  horiz-adv-x="604" vert-adv-y="1000"  />

      
      <glyph glyph-name="uni33" unicode="&#x33;" d="M178 818Q201 818 217 808.50Q233 799 233 773Q261 780 282 776Q303 772 315.50 758.50Q328 745 330 723Q332 701 323 673Q314 645 318.50 630Q323 615 330.50 605Q338 595 342.50 586.50Q347 578 338 563Q319 539 311.50 525.50Q304 512 303.50 500Q303 488 307.50 473.50Q312 459 318 433Q318 425 315.50 420.50Q313 416 313 408Q313 404 315.50 398Q318 392 318 388Q333 379 337 377Q341 375 342 370.50Q343 366 345 353Q347 340 358 308Q352 304 355 302.50Q358 301 364 299Q370 297 377 293.50Q384 290 388 283Q394 273 390 264.50Q386 256 376.50 247Q367 238 355.50 228Q344 218 334.50 206Q325 194 321 178.50Q317 163 323 143Q332 117 330 96Q328 75 315.50 62Q303 49 282 44.50Q261 40 233 48Q233 22 216.50 10.50Q200-1 179-0.50Q158 0 138.50 10.50Q119 21 113 38Q87 50 64 62Q44 73 26 85Q8 97 3 108Q-5 130 9 131.50Q23 133 47 125Q71 117 99 106Q127 95 148 93Q155 93 157 98Q159 103 158.50 109.50Q158 116 157 122.50Q156 129 158 133Q164 145 176.50 152Q189 159 202.50 163.50Q216 168 228 173.50Q240 179 245 189.50Q250 200 246 217Q242 234 223 263L238 278Q230 289 225 310.50Q220 332 215.50 351.50Q211 371 205.50 383Q200 395 193 388Q180 373 165.50 369.50Q151 366 136.50 368Q122 370 108 374Q94 378 83 378Q53 380 33 390Q13 400 10 412Q7 424 23.50 435.50Q40 447 83 453Q94 449 102 453.50Q110 458 117 465.50Q124 473 130.50 481Q137 489 145.50 492Q154 495 165.50 490Q177 485 193 468Q199 460 203.50 467Q208 474 213.50 487Q219 500 224.50 516Q230 532 238 543Q236 545 233.50 553Q231 561 228 570.50Q225 580 222.50 588Q220 596 218 598Q232 619 245.50 632Q259 645 267.50 653.50Q276 662 276.50 668Q277 674 265 680.50Q253 687 225 697Q197 707 148 723Q134 722 116.50 718.50Q99 715 81.50 712.50Q64 710 47.50 708Q31 706 19.50 708.50Q8 711 3 717.50Q-2 724 3 738Q22 749 24.50 757.50Q27 766 22.50 771.50Q18 777 12 780Q6 783 8 783Q17 785 35 785.50Q53 786 70 785Q90 784 113 783Q117 802 136 810Q155 818 178 818Z"  horiz-adv-x="492" vert-adv-y="1000"  />

      
      <glyph glyph-name="uni34" unicode="&#x34;" d="M358 3Q371 31 372.50 46Q374 61 369 67Q364 73 355 71.50Q346 70 337 65.50Q328 61 322 55.50Q316 50 318 48Q297 50 295 67Q293 84 299 108Q305 132 314.50 160.50Q324 189 328 213L283 278Q264 282 245 289.50Q226 297 203 293Q168 265 154 260Q140 255 136 261.50Q132 268 134 282Q136 296 133.50 306.50Q131 317 118 320Q105 323 73 308Q46 329 37 343.50Q28 358 29 368Q30 378 36.50 385Q43 392 47 398Q51 404 47 411Q43 418 23 428Q2 448-1.50 457.50Q-5 467 0 471.50Q5 476 14.50 477.50Q24 479 28 483Q32 487 27 495.50Q22 504-2 523Q3 531 3 547Q3 563 2.50 582Q2 601 2.50 619.50Q3 638 8.50 649Q14 660 26.50 661.50Q39 663 63 648Q55 625 58.50 606Q62 587 88 568Q95 566 96 561.50Q97 557 95 551.50Q93 546 89 540Q85 534 83 528Q91 505 94.50 480.50Q98 456 83 433Q89 414 103 397Q117 380 135 369Q153 358 173.50 354Q194 350 213 358Q220 358 227.50 361Q235 364 242.50 367.50Q250 371 257.50 373Q265 375 273 373Q292 369 306 374.50Q320 380 328 388Q339 403 339 431Q339 459 328 493Q340 488 339 503Q338 518 330.50 542.50Q323 567 313.50 595.50Q304 624 300.50 645Q297 666 303 674.50Q309 683 333 668L383 643Q385 634 385.50 612Q386 590 387 565.50Q388 541 390 519Q392 497 398 488Q405 479 412.50 469.50Q420 460 424 451Q428 442 426 433.50Q424 425 413 418Q405 414 407 408Q409 402 415 396Q421 390 429 385Q437 380 443 378Q450 382 455.50 380.50Q461 379 465.50 376Q470 373 475 369Q480 365 488 363Q522 359 530 355.50Q538 352 532.50 348Q527 344 515.50 340.50Q504 337 498 333Q490 329 478.50 326.50Q467 324 454 322Q441 320 427.50 319Q414 318 403 318Q395 297 394 266.50Q393 236 394.50 202.50Q396 169 398 137Q400 105 398 83Q398 57 398 42Q398 27 395 19Q392 11 383.50 8Q375 5 358 3Z"  horiz-adv-x="634" vert-adv-y="1000"  />

      
      <glyph glyph-name="uni35" unicode="&#x35;" d="M92 603Q101 603 107.50 617Q114 631 119.50 646.50Q125 662 131.50 673Q138 684 147 678Q162 676 170.50 668Q179 660 184 651Q189 640 192 628Q205 626 218 629Q231 632 244 636Q257 640 269 644Q281 648 292 648Q301 650 309 646.50Q317 643 323.50 638Q330 633 335.50 629.50Q341 626 347 628Q375 635 403.50 640Q432 645 454.50 644Q477 643 490.50 635Q504 627 502 608Q502 602 494 590Q486 578 473.50 565.50Q461 553 446 542.50Q431 532 416.50 529Q402 526 390 533Q378 540 372 563Q368 576 360 574.50Q352 573 341.50 566Q331 559 318 551Q305 543 292 543L182 558Q178 554 175 550Q172 546 165 543.50Q158 541 144.50 541.50Q131 542 107 548L97 493Q82 477 77 465Q72 454 75.50 446Q79 438 102 438Q128 436 137.50 410.50Q147 385 148 354Q149 318 142 273Q138 277 134.50 271.50Q131 266 127 258Q144 252 154 261Q164 270 174.50 278Q185 286 199 287.50Q213 289 237 268Q248 259 267 258Q286 257 305 257.50Q324 258 340 256Q356 254 362 243Q362 239 361.50 233Q361 227 357 223Q361 219 361.50 215.50Q362 212 362 208Q377 200 381 199Q385 198 386 195Q387 192 389 182Q391 172 402 148Q396 144 399 142.50Q402 141 408 139.50Q414 138 421 136Q428 134 432 128Q438 121 434 114Q430 107 421 100.50Q412 94 400.50 86.50Q389 79 380 70Q371 61 367.50 49.50Q364 38 372 23Q381 0 378-16.50Q375-33 362-42.50Q349-52 327-55Q305-58 277-52Q277-73 260.50-82Q244-91 223-91Q202-91 182.50-83Q163-75 157-62Q130-52 108-42Q89-34 72.50-24.50Q56-15 52-7Q43 10 56 11Q69 12 92 6.50Q115 1 143-7Q171-15 192-17Q199-17 201-13.50Q203-10 202.50-5.50Q202-1 201 4Q200 9 202 13Q208 22 220.50 26.50Q233 31 246.50 34.50Q260 38 272 42.50Q284 47 289 55Q294 63 290 76.50Q286 90 267 113Q271 117 274.50 118Q278 119 282 123Q274 130 269 146.50Q264 163 260 178.50Q256 194 252 204Q248 214 242 208Q227 197 212 194Q197 191 183 192.50Q169 194 156 197.50Q143 201 132 203Q108 203 89.50 207Q71 211 62 217Q53 223 53.50 230Q54 237 67 243Q67 247 64 251Q61 255 57 263L52 353L12 468Q15 483 16 497Q17 509 16.50 523Q16 537 12 548Q6 567 4.50 581.50Q3 596 4 607Q5 619 7 628Q9 634 18 630.50Q27 627 40 621Q53 615 67 609Q81 603 92 603Z"  horiz-adv-x="578" vert-adv-y="1000"  />

      
      <glyph glyph-name="uni36" unicode="&#x36;" d="M63 123Q54 147 47.50 171Q41 195 39 216.50Q37 238 40.50 256.50Q44 275 53 288Q50 303 43 310Q36 317 27.50 319.50Q19 322 11 322.50Q3 323 0 325Q-3 327 0.50 333Q4 339 18 353L13 463Q11 484 5 499.50Q-1 515-2.50 528Q-4 541 4 553Q12 565 38 578Q49 584 59.50 592.50Q70 601 81.50 606.50Q93 612 105.50 611.50Q118 611 133 598Q152 605 170 609.50Q188 614 203 612.50Q218 611 228.50 603Q239 595 243 578Q247 559 251.50 553Q256 547 263.50 545.50Q271 544 280.50 543Q290 542 304 534Q318 526 336 506.50Q354 487 378 448Q387 435 391 419.50Q395 404 393 393.50Q391 383 383.50 380Q376 377 363 388Q357 394 349.50 403Q342 412 335.50 419Q329 426 325 428Q321 430 323 423Q329 399 322.50 398.50Q316 398 306.50 407.50Q297 417 289 430.50Q281 444 283 448Q287 455 282.50 465Q278 475 269 481.50Q260 488 248.50 488.50Q237 489 228 478Q220 470 210.50 468.50Q201 467 191 469Q181 471 172.50 475Q164 479 158 483Q143 490 126.50 487.50Q110 485 96.50 476.50Q83 468 74.50 456Q66 444 68 433L113 348L163 348Q199 367 218.50 362.50Q238 358 251 343Q264 328 273.50 308.50Q283 289 298 278Q328 265 337.50 253.50Q347 242 346.50 230Q346 218 341 205.50Q336 193 338 178Q340 167 345.50 154Q351 141 353.50 128Q356 115 351.50 102Q347 89 328 78Q345 46 343 24Q341 2 327.50-11Q314-24 292-29Q270-34 248-32Q231-32 220-37Q209-42 202-46Q195-50 191-49Q187-48 183-37Q162-21 148-11.50Q134-2 125 4.50Q116 11 110 18.50Q104 26 97.50 38.50Q91 51 83 71Q75 91 63 123M258 43Q266 43 270 46.50Q274 50 278 58Q286 81 291 100.50Q296 120 288 143Q280 158 278.50 178Q277 198 273 213Q271 222 256 232.50Q241 243 224 250Q207 257 194 258.50Q181 260 183 253Q194 219 187 212Q180 205 165.50 209.50Q151 214 136.50 223.50Q122 233 118 233Q107 237 110 225.50Q113 214 121 197.50Q129 181 137 165Q145 149 143 143Q141 139 143.50 130Q146 121 150 110.50Q154 100 159 91Q164 82 168 78Q174 69 179.50 66.50Q185 64 191 64Q197 64 203.50 64Q210 64 218 58Q229 50 239.50 44.50Q250 39 258 43Z"  horiz-adv-x="482" vert-adv-y="1000"  />

      
      <glyph glyph-name="uni37" unicode="&#x37;" d="M188-142Q157-190 140-205.50Q123-221 116-213.50Q109-206 110.50-180.50Q112-155 117-120.50Q122-86 129-47.50Q136-9 141.50 24.50Q147 58 148.50 81Q150 104 143 108Q143 112 139 104.50Q135 97 130 88Q125 79 120 71.50Q115 64 113 68Q105 85 109.50 103.50Q114 122 125 141Q136 160 150.50 179.50Q165 199 178 218Q209 264 223.50 296Q238 328 242.50 351Q247 374 244.50 389.50Q242 405 238.50 418.50Q235 432 234.50 445.50Q234 459 243 478Q249 489 240 493Q231 497 217.50 497.50Q204 498 190.50 497Q177 496 173 498Q156 496 144.50 483Q133 470 121 461.50Q109 453 94.50 457Q80 461 58 493Q43 512 29 520.50Q15 529 10 536Q5 543 12.50 552.50Q20 562 48 583Q52 613 62.50 623Q73 633 86.50 630Q100 627 115 613.50Q130 600 143 583Q162 603 183.50 605Q205 607 224 601Q246 594 268 578Q311 593 345 601Q379 609 394.50 603.50Q410 598 402 577Q394 556 353 513Q351 496 345.50 477.50Q340 459 334.50 441Q329 423 325 405.50Q321 388 323 373Q325 358 327.50 344.50Q330 331 327.50 317Q325 303 315 287.50Q305 272 283 253Q270 242 262.50 228.50Q255 215 251.50 198.50Q248 182 246.50 162Q245 142 243 118Q233 93 236 81Q239 69 246.50 63Q254 57 262 53.50Q270 50 270 43Q270 36 257.50 21.50Q245 7 213-22Q204-31 204.50-44Q205-57 206.50-72.50Q208-88 205.50-105.50Q203-123 188-142Z"  horiz-adv-x="477" vert-adv-y="1000"  />

      
      <glyph glyph-name="uni38" unicode="&#x38;" d="M148 758Q167 754 185 746.50Q203 739 218 728Q235 717 248 713.50Q261 710 270 708Q279 706 283.50 702.50Q288 699 288 688Q300 663 309 648Q318 633 323 622Q328 611 331 601.50Q334 592 335 578Q336 564 335 543Q334 522 333 488Q333 435 320.50 399.50Q308 364 278 353L278 348Q310 346 324.50 335.50Q339 325 346 307Q353 289 357.50 265Q362 241 373 213Q378 201 388 187.50Q398 174 406.50 160.50Q415 147 420.50 133.50Q426 120 421.50 107Q417 94 400 81.50Q383 69 348 58Q318 50 283.50 39Q249 28 223 13Q185-2 161.50-2Q138-2 138 28Q138 43 117.50 55Q97 67 72.50 77.50Q48 88 26.50 99Q5 110 3 123Q-1 136 5 155Q11 174 19 191Q29 211 43 233Q28 240 25 253Q22 266 26 282Q30 298 39.50 316Q49 334 58 353Q66 368 74 379Q82 390 93 398Q78 407 72 421.50Q66 436 63 452Q60 468 57.50 484Q55 500 48 513Q25 541 21 556Q17 571 21.50 580Q26 589 35 595.50Q44 602 48 613Q52 624 52.50 638.50Q53 653 56 665.50Q59 678 68 685Q77 692 98 688Q98 726 111.50 742Q125 758 148 758M173 678Q169 678 165.50 677.50Q162 677 158 673Q143 662 130 649Q117 636 113 613Q113 598 107.50 580.50Q102 563 98 548Q98 539 109 521Q120 503 133 487Q146 471 157 462.50Q168 454 168 463Q169 486 174 493Q179 500 186 497.50Q193 495 201 485.50Q209 476 216.50 465Q224 454 229.50 444.50Q235 435 238 433Q247 424 248.50 435.50Q250 447 248.50 465Q247 483 245.50 501Q244 519 248 523Q252 525 254 533.50Q256 542 256.50 552.50Q257 563 256 574Q255 585 253 593Q251 602 246.50 607Q242 612 236.50 615.50Q231 619 225 624Q219 629 213 638Q205 649 198 659Q191 669 183 673Q179 677 178 677.50Q177 678 173 678M193 323Q170 321 155 313.50Q140 306 135 293.50Q130 281 136 263Q142 245 163 223Q169 215 166.50 206Q164 197 157 187Q150 177 142 167Q134 157 129.50 147.50Q125 138 127 130.50Q129 123 143 118Q156 114 167 127Q178 140 190 152.50Q202 165 215.50 169.50Q229 174 248 153Q257 144 257.50 152.50Q258 161 253.50 177.50Q249 194 243 213Q237 232 233 243Q229 254 230.50 268.50Q232 283 228 298L208 318Q204 318 200.50 320.50Q197 323 193 323Z"  horiz-adv-x="487" vert-adv-y="1000"  />

      
      </font>
</defs>
</svg>
